<svg width="242" height="241" viewBox="0 0 242 241" fill="none" xmlns="http://www.w3.org/2000/svg">
<path d="M219.97 209.98H219.43V229H215.47V208H223.21L225.67 227.02H226.21V208H230.17V229H222.43L219.97 209.98ZM212.191 220.84C212.191 223.56 211.511 225.67 210.151 227.17C208.771 228.67 206.871 229.42 204.451 229.42C202.031 229.42 200.141 228.67 198.781 227.17C197.401 225.67 196.711 223.56 196.711 220.84V216.16C196.711 213.36 197.401 211.23 198.781 209.77C200.141 208.31 202.031 207.58 204.451 207.58C206.871 207.58 208.771 208.31 210.151 209.77C211.511 211.23 212.191 213.36 212.191 216.16V220.84ZM204.451 211.18C203.731 211.18 203.131 211.29 202.651 211.51C202.171 211.75 201.781 212.08 201.481 212.5C201.181 212.92 200.971 213.42 200.851 214C200.731 214.58 200.671 215.22 200.671 215.92V221.08C200.671 221.74 200.741 222.36 200.881 222.94C201.021 223.52 201.241 224.02 201.541 224.44C201.841 224.86 202.231 225.19 202.711 225.43C203.191 225.69 203.771 225.82 204.451 225.82C205.131 225.82 205.711 225.69 206.191 225.43C206.671 225.19 207.061 224.86 207.361 224.44C207.661 224.02 207.881 223.52 208.021 222.94C208.161 222.36 208.231 221.74 208.231 221.08V215.92C208.231 215.22 208.171 214.58 208.051 214C207.931 213.42 207.721 212.92 207.421 212.5C207.121 212.08 206.731 211.75 206.251 211.51C205.771 211.29 205.171 211.18 204.451 211.18ZM164.113 222.58C164.113 223.42 164.443 224.15 165.103 224.77C165.743 225.39 166.653 225.7 167.833 225.7C168.833 225.7 169.623 225.49 170.203 225.07C170.783 224.67 171.073 224.12 171.073 223.42C171.073 223.06 171.003 222.73 170.863 222.43C170.723 222.15 170.483 221.89 170.143 221.65C169.783 221.43 169.323 221.23 168.763 221.05C168.183 220.87 167.453 220.7 166.573 220.54C164.373 220.14 162.693 219.47 161.533 218.53C160.373 217.59 159.793 216.2 159.793 214.36V214C159.793 213.02 159.973 212.13 160.333 211.33C160.673 210.55 161.173 209.88 161.833 209.32C162.493 208.76 163.293 208.33 164.233 208.03C165.173 207.73 166.233 207.58 167.413 207.58C168.793 207.58 170.013 207.77 171.073 208.15C172.113 208.55 172.983 209.09 173.683 209.77C174.383 210.47 174.913 211.28 175.273 212.2C175.633 213.14 175.813 214.16 175.813 215.26V216.16H171.853V215.44C171.853 214.18 171.493 213.17 170.773 212.41C170.033 211.67 168.893 211.3 167.353 211.3C166.153 211.3 165.263 211.56 164.683 212.08C164.103 212.6 163.813 213.22 163.813 213.94C163.813 214.28 163.873 214.6 163.993 214.9C164.113 215.22 164.323 215.5 164.623 215.74C164.923 216 165.333 216.23 165.853 216.43C166.373 216.63 167.033 216.8 167.833 216.94C168.893 217.12 169.863 217.35 170.743 217.63C171.623 217.93 172.393 218.32 173.053 218.8C173.693 219.28 174.193 219.88 174.553 220.6C174.913 221.32 175.093 222.2 175.093 223.24V223.42C175.093 224.28 174.923 225.07 174.583 225.79C174.223 226.53 173.733 227.17 173.113 227.71C172.473 228.25 171.713 228.67 170.833 228.97C169.933 229.27 168.933 229.42 167.833 229.42C166.593 229.42 165.493 229.24 164.533 228.88C163.573 228.54 162.773 228.07 162.133 227.47C161.473 226.87 160.983 226.18 160.663 225.4C160.323 224.62 160.153 223.8 160.153 222.94V221.86H164.113V222.58ZM141.783 229V215.26C141.783 212.86 142.423 210.98 143.703 209.62C144.963 208.26 146.843 207.58 149.343 207.58C151.843 207.58 153.733 208.26 155.013 209.62C156.273 210.98 156.903 212.86 156.903 215.26V229H152.943V215.26C152.943 214.02 152.653 213.05 152.073 212.35C151.493 211.65 150.583 211.3 149.343 211.3C148.103 211.3 147.193 211.65 146.613 212.35C146.033 213.05 145.743 214.02 145.743 215.26V229H141.783ZM123.864 208H127.824V214.3C127.824 214.78 127.954 215.17 128.214 215.47C128.454 215.77 128.864 215.92 129.444 215.92H134.004V208H137.964V229H129.924C128.844 229 127.894 228.85 127.074 228.55C126.254 228.25 125.574 227.83 125.034 227.29C124.474 226.77 124.054 226.16 123.774 225.46C123.474 224.76 123.324 224.01 123.324 223.21V222.49C123.324 221.63 123.554 220.82 124.014 220.06C124.474 219.32 125.184 218.75 126.144 218.35V217.81C125.444 217.73 124.894 217.46 124.494 217C124.074 216.54 123.864 215.96 123.864 215.26V208ZM134.004 219.7H130.224C129.264 219.7 128.534 219.92 128.034 220.36C127.534 220.82 127.284 221.46 127.284 222.28V222.64C127.284 223.34 127.534 223.94 128.034 224.44C128.534 224.96 129.264 225.22 130.224 225.22H134.004V219.7ZM115.665 215.92V208H119.625V229H111.405C110.325 229 109.385 228.82 108.585 228.46C107.785 228.12 107.125 227.66 106.605 227.08C106.065 226.52 105.665 225.87 105.405 225.13C105.125 224.41 104.985 223.67 104.985 222.91V222.19C104.985 221.41 105.125 220.64 105.405 219.88C105.665 219.14 106.065 218.47 106.605 217.87C107.125 217.29 107.785 216.82 108.585 216.46C109.385 216.1 110.325 215.92 111.405 215.92H115.665ZM115.665 219.7H111.795C110.915 219.7 110.225 219.94 109.725 220.42C109.205 220.9 108.945 221.52 108.945 222.28V222.64C108.945 223.4 109.205 224.02 109.725 224.5C110.225 224.98 110.915 225.22 111.795 225.22H115.665V219.7ZM87.126 208H91.086V214.3C91.086 214.78 91.216 215.17 91.476 215.47C91.716 215.77 92.126 215.92 92.706 215.92H97.266V208H101.226V229H93.186C92.106 229 91.156 228.85 90.336 228.55C89.516 228.25 88.836 227.83 88.296 227.29C87.736 226.77 87.316 226.16 87.036 225.46C86.736 224.76 86.586 224.01 86.586 223.21V222.49C86.586 221.63 86.816 220.82 87.276 220.06C87.736 219.32 88.446 218.75 89.406 218.35V217.81C88.706 217.73 88.156 217.46 87.756 217C87.336 216.54 87.126 215.96 87.126 215.26V208ZM97.266 219.7H93.486C92.526 219.7 91.796 219.92 91.296 220.36C90.796 220.82 90.546 221.46 90.546 222.28V222.64C90.546 223.34 90.796 223.94 91.296 224.44C91.796 224.96 92.526 225.22 93.486 225.22H97.266V219.7ZM82.8869 229H68.8469V225.22H73.8869V211.78H68.8469V208H82.8869V211.78H77.8469V225.22H82.8869V229ZM53.8977 222.58C53.8977 223.42 54.2277 224.15 54.8877 224.77C55.5277 225.39 56.4377 225.7 57.6177 225.7C58.6177 225.7 59.4077 225.49 59.9877 225.07C60.5677 224.67 60.8577 224.12 60.8577 223.42C60.8577 223.06 60.7877 222.73 60.6477 222.43C60.5077 222.15 60.2677 221.89 59.9277 221.65C59.5677 221.43 59.1077 221.23 58.5477 221.05C57.9677 220.87 57.2377 220.7 56.3577 220.54C54.1577 220.14 52.4777 219.47 51.3177 218.53C50.1577 217.59 49.5777 216.2 49.5777 214.36V214C49.5777 213.02 49.7577 212.13 50.1177 211.33C50.4577 210.55 50.9577 209.88 51.6177 209.32C52.2777 208.76 53.0777 208.33 54.0177 208.03C54.9577 207.73 56.0177 207.58 57.1977 207.58C58.5777 207.58 59.7977 207.77 60.8577 208.15C61.8977 208.55 62.7677 209.09 63.4677 209.77C64.1677 210.47 64.6977 211.28 65.0577 212.2C65.4177 213.14 65.5977 214.16 65.5977 215.26V216.16H61.6377V215.44C61.6377 214.18 61.2777 213.17 60.5577 212.41C59.8177 211.67 58.6777 211.3 57.1377 211.3C55.9377 211.3 55.0477 211.56 54.4677 212.08C53.8877 212.6 53.5977 213.22 53.5977 213.94C53.5977 214.28 53.6577 214.6 53.7777 214.9C53.8977 215.22 54.1077 215.5 54.4077 215.74C54.7077 216 55.1177 216.23 55.6377 216.43C56.1577 216.63 56.8177 216.8 57.6177 216.94C58.6777 217.12 59.6477 217.35 60.5277 217.63C61.4077 217.93 62.1777 218.32 62.8377 218.8C63.4777 219.28 63.9777 219.88 64.3377 220.6C64.6977 221.32 64.8777 222.2 64.8777 223.24V223.42C64.8777 224.28 64.7077 225.07 64.3677 225.79C64.0077 226.53 63.5177 227.17 62.8977 227.71C62.2577 228.25 61.4977 228.67 60.6177 228.97C59.7177 229.27 58.7177 229.42 57.6177 229.42C56.3777 229.42 55.2777 229.24 54.3177 228.88C53.3577 228.54 52.5577 228.07 51.9177 227.47C51.2577 226.87 50.7677 226.18 50.4477 225.4C50.1077 224.62 49.9377 223.8 49.9377 222.94V221.86H53.8977V222.58ZM45.8486 229H32.5886V225.22H41.8886V220.42H32.9486V216.64H41.8886V211.78H32.2286V208H45.8486V229ZM17.1595 222.58C17.1595 223.42 17.4895 224.15 18.1495 224.77C18.7895 225.39 19.6995 225.7 20.8795 225.7C21.8795 225.7 22.6695 225.49 23.2495 225.07C23.8295 224.67 24.1195 224.12 24.1195 223.42C24.1195 223.06 24.0495 222.73 23.9095 222.43C23.7695 222.15 23.5295 221.89 23.1895 221.65C22.8295 221.43 22.3695 221.23 21.8095 221.05C21.2295 220.87 20.4995 220.7 19.6195 220.54C17.4195 220.14 15.7395 219.47 14.5795 218.53C13.4195 217.59 12.8395 216.2 12.8395 214.36V214C12.8395 213.02 13.0195 212.13 13.3795 211.33C13.7195 210.55 14.2195 209.88 14.8795 209.32C15.5395 208.76 16.3395 208.33 17.2795 208.03C18.2195 207.73 19.2795 207.58 20.4595 207.58C21.8395 207.58 23.0595 207.77 24.1195 208.15C25.1595 208.55 26.0295 209.09 26.7295 209.77C27.4295 210.47 27.9595 211.28 28.3195 212.2C28.6795 213.14 28.8595 214.16 28.8595 215.26V216.16H24.8995V215.44C24.8995 214.18 24.5395 213.17 23.8195 212.41C23.0795 211.67 21.9395 211.3 20.3995 211.3C19.1995 211.3 18.3095 211.56 17.7295 212.08C17.1495 212.6 16.8595 213.22 16.8595 213.94C16.8595 214.28 16.9195 214.6 17.0395 214.9C17.1595 215.22 17.3695 215.5 17.6695 215.74C17.9695 216 18.3795 216.23 18.8995 216.43C19.4195 216.63 20.0795 216.8 20.8795 216.94C21.9395 217.12 22.9095 217.35 23.7895 217.63C24.6695 217.93 25.4395 218.32 26.0995 218.8C26.7395 219.28 27.2395 219.88 27.5995 220.6C27.9595 221.32 28.1395 222.2 28.1395 223.24V223.42C28.1395 224.28 27.9695 225.07 27.6295 225.79C27.2695 226.53 26.7795 227.17 26.1595 227.71C25.5195 228.25 24.7595 228.67 23.8795 228.97C22.9795 229.27 21.9795 229.42 20.8795 229.42C19.6395 229.42 18.5395 229.24 17.5795 228.88C16.6195 228.54 15.8195 228.07 15.1795 227.47C14.5195 226.87 14.0295 226.18 13.7095 225.4C13.3695 224.62 13.1995 223.8 13.1995 222.94V221.86H17.1595V222.58Z" fill="white"/>
<path d="M22.03 31.02H22.57V12H26.53V33H18.79L16.33 13.98H15.79V33H11.83V12H19.57L22.03 31.02ZM29.8091 20.16C29.8091 17.44 30.4891 15.33 31.8491 13.83C33.2291 12.33 35.1291 11.58 37.5491 11.58C39.9691 11.58 41.8591 12.33 43.2191 13.83C44.5991 15.33 45.2891 17.44 45.2891 20.16V24.84C45.2891 27.64 44.5991 29.77 43.2191 31.23C41.8591 32.69 39.9691 33.42 37.5491 33.42C35.1291 33.42 33.2291 32.69 31.8491 31.23C30.4891 29.77 29.8091 27.64 29.8091 24.84V20.16ZM37.5491 29.82C38.2691 29.82 38.8691 29.71 39.3491 29.49C39.8291 29.25 40.2191 28.92 40.5191 28.5C40.8191 28.08 41.0291 27.58 41.1491 27C41.2691 26.42 41.3291 25.78 41.3291 25.08V19.92C41.3291 19.26 41.2591 18.64 41.1191 18.06C40.9791 17.48 40.7591 16.98 40.4591 16.56C40.1591 16.14 39.7691 15.81 39.2891 15.57C38.8091 15.31 38.2291 15.18 37.5491 15.18C36.8691 15.18 36.2891 15.31 35.8091 15.57C35.3291 15.81 34.9391 16.14 34.6391 16.56C34.3391 16.98 34.1191 17.48 33.9791 18.06C33.8391 18.64 33.7691 19.26 33.7691 19.92V25.08C33.7691 25.78 33.8291 26.42 33.9491 27C34.0691 27.58 34.2791 28.08 34.5791 28.5C34.8791 28.92 35.2691 29.25 35.7491 29.49C36.2291 29.71 36.8291 29.82 37.5491 29.82ZM77.8874 18.42C77.8874 17.58 77.5574 16.85 76.8974 16.23C76.2574 15.61 75.3474 15.3 74.1674 15.3C73.1674 15.3 72.3774 15.51 71.7974 15.93C71.2174 16.33 70.9274 16.88 70.9274 17.58C70.9274 17.94 70.9974 18.27 71.1374 18.57C71.2774 18.85 71.5174 19.11 71.8574 19.35C72.2174 19.57 72.6774 19.77 73.2374 19.95C73.8174 20.13 74.5474 20.3 75.4274 20.46C77.6274 20.86 79.3074 21.53 80.4674 22.47C81.6274 23.41 82.2074 24.8 82.2074 26.64V27C82.2074 27.98 82.0274 28.87 81.6674 29.67C81.3274 30.45 80.8274 31.12 80.1674 31.68C79.5074 32.24 78.7074 32.67 77.7674 32.97C76.8274 33.27 75.7674 33.42 74.5874 33.42C73.2074 33.42 71.9874 33.23 70.9274 32.85C69.8874 32.45 69.0174 31.91 68.3174 31.23C67.6174 30.53 67.0874 29.72 66.7274 28.8C66.3674 27.86 66.1874 26.84 66.1874 25.74V24.84H70.1474V25.56C70.1474 26.82 70.5074 27.83 71.2274 28.59C71.9674 29.33 73.1074 29.7 74.6474 29.7C75.8474 29.7 76.7374 29.44 77.3174 28.92C77.8974 28.4 78.1874 27.78 78.1874 27.06C78.1874 26.72 78.1274 26.4 78.0074 26.1C77.8874 25.78 77.6774 25.5 77.3774 25.26C77.0774 25 76.6674 24.77 76.1474 24.57C75.6274 24.37 74.9674 24.2 74.1674 24.06C73.1074 23.88 72.1374 23.65 71.2574 23.37C70.3774 23.07 69.6074 22.68 68.9474 22.2C68.3074 21.72 67.8074 21.12 67.4474 20.4C67.0874 19.68 66.9074 18.8 66.9074 17.76V17.58C66.9074 16.72 67.0774 15.93 67.4174 15.21C67.7774 14.47 68.2674 13.83 68.8874 13.29C69.5274 12.75 70.2874 12.33 71.1674 12.03C72.0674 11.73 73.0674 11.58 74.1674 11.58C75.4074 11.58 76.5074 11.76 77.4674 12.12C78.4274 12.46 79.2274 12.93 79.8674 13.53C80.5274 14.13 81.0174 14.82 81.3374 15.6C81.6774 16.38 81.8474 17.2 81.8474 18.06V19.14H77.8874V18.42ZM100.217 12V25.74C100.217 28.14 99.5766 30.02 98.2966 31.38C97.0366 32.74 95.1566 33.42 92.6566 33.42C90.1566 33.42 88.2666 32.74 86.9866 31.38C85.7266 30.02 85.0966 28.14 85.0966 25.74V12H89.0566V25.74C89.0566 26.98 89.3466 27.95 89.9266 28.65C90.5066 29.35 91.4166 29.7 92.6566 29.7C93.8966 29.7 94.8066 29.35 95.3866 28.65C95.9666 27.95 96.2566 26.98 96.2566 25.74V12H100.217ZM118.136 33H114.176V26.7C114.176 26.22 114.046 25.83 113.786 25.53C113.546 25.23 113.136 25.08 112.556 25.08H107.996V33H104.036V12H112.076C113.156 12 114.106 12.15 114.926 12.45C115.746 12.75 116.426 13.17 116.966 13.71C117.526 14.23 117.946 14.84 118.226 15.54C118.526 16.24 118.676 16.99 118.676 17.79V18.51C118.676 19.37 118.446 20.18 117.986 20.94C117.526 21.68 116.816 22.25 115.856 22.65V23.19C116.556 23.27 117.106 23.54 117.506 24C117.926 24.46 118.136 25.04 118.136 25.74V33ZM107.996 21.3H111.776C112.736 21.3 113.466 21.08 113.966 20.64C114.466 20.18 114.716 19.54 114.716 18.72V18.36C114.716 17.66 114.466 17.06 113.966 16.56C113.466 16.04 112.736 15.78 111.776 15.78H107.996V21.3ZM126.335 25.08V33H122.375V12H130.595C131.675 12 132.615 12.18 133.415 12.54C134.215 12.88 134.875 13.34 135.395 13.92C135.935 14.48 136.335 15.13 136.595 15.87C136.875 16.59 137.015 17.33 137.015 18.09V18.81C137.015 19.59 136.875 20.36 136.595 21.12C136.335 21.86 135.935 22.53 135.395 23.13C134.875 23.71 134.215 24.18 133.415 24.54C132.615 24.9 131.675 25.08 130.595 25.08H126.335ZM126.335 21.3H130.205C131.085 21.3 131.775 21.06 132.275 20.58C132.795 20.1 133.055 19.48 133.055 18.72V18.36C133.055 17.6 132.795 16.98 132.275 16.5C131.775 16.02 131.085 15.78 130.205 15.78H126.335V21.3ZM154.874 33H150.914V26.7C150.914 26.22 150.784 25.83 150.524 25.53C150.284 25.23 149.874 25.08 149.294 25.08H144.734V33H140.774V12H148.814C149.894 12 150.844 12.15 151.664 12.45C152.484 12.75 153.164 13.17 153.704 13.71C154.264 14.23 154.684 14.84 154.964 15.54C155.264 16.24 155.414 16.99 155.414 17.79V18.51C155.414 19.37 155.184 20.18 154.724 20.94C154.264 21.68 153.554 22.25 152.594 22.65V23.19C153.294 23.27 153.844 23.54 154.244 24C154.664 24.46 154.874 25.04 154.874 25.74V33ZM144.734 21.3H148.514C149.474 21.3 150.204 21.08 150.704 20.64C151.204 20.18 151.454 19.54 151.454 18.72V18.36C151.454 17.66 151.204 17.06 150.704 16.56C150.204 16.04 149.474 15.78 148.514 15.78H144.734V21.3ZM159.113 12H173.153V15.78H168.113V29.22H173.153V33H159.113V29.22H164.153V15.78H159.113V12ZM188.102 18.42C188.102 17.58 187.772 16.85 187.112 16.23C186.472 15.61 185.562 15.3 184.382 15.3C183.382 15.3 182.592 15.51 182.012 15.93C181.432 16.33 181.142 16.88 181.142 17.58C181.142 17.94 181.212 18.27 181.352 18.57C181.492 18.85 181.732 19.11 182.072 19.35C182.432 19.57 182.892 19.77 183.452 19.95C184.032 20.13 184.762 20.3 185.642 20.46C187.842 20.86 189.522 21.53 190.682 22.47C191.842 23.41 192.422 24.8 192.422 26.64V27C192.422 27.98 192.242 28.87 191.882 29.67C191.542 30.45 191.042 31.12 190.382 31.68C189.722 32.24 188.922 32.67 187.982 32.97C187.042 33.27 185.982 33.42 184.802 33.42C183.422 33.42 182.202 33.23 181.142 32.85C180.102 32.45 179.232 31.91 178.532 31.23C177.832 30.53 177.302 29.72 176.942 28.8C176.582 27.86 176.402 26.84 176.402 25.74V24.84H180.362V25.56C180.362 26.82 180.722 27.83 181.442 28.59C182.182 29.33 183.322 29.7 184.862 29.7C186.062 29.7 186.952 29.44 187.532 28.92C188.112 28.4 188.402 27.78 188.402 27.06C188.402 26.72 188.342 26.4 188.222 26.1C188.102 25.78 187.892 25.5 187.592 25.26C187.292 25 186.882 24.77 186.362 24.57C185.842 24.37 185.182 24.2 184.382 24.06C183.322 23.88 182.352 23.65 181.472 23.37C180.592 23.07 179.822 22.68 179.162 22.2C178.522 21.72 178.022 21.12 177.662 20.4C177.302 19.68 177.122 18.8 177.122 17.76V17.58C177.122 16.72 177.292 15.93 177.632 15.21C177.992 14.47 178.482 13.83 179.102 13.29C179.742 12.75 180.502 12.33 181.382 12.03C182.282 11.73 183.282 11.58 184.382 11.58C185.622 11.58 186.722 11.76 187.682 12.12C188.642 12.46 189.442 12.93 190.082 13.53C190.742 14.13 191.232 14.82 191.552 15.6C191.892 16.38 192.062 17.2 192.062 18.06V19.14H188.102V18.42ZM196.151 12H209.411V15.78H200.111V20.58H209.051V24.36H200.111V29.22H209.771V33H196.151V12ZM224.841 18.42C224.841 17.58 224.511 16.85 223.851 16.23C223.211 15.61 222.301 15.3 221.121 15.3C220.121 15.3 219.331 15.51 218.751 15.93C218.171 16.33 217.881 16.88 217.881 17.58C217.881 17.94 217.951 18.27 218.091 18.57C218.231 18.85 218.471 19.11 218.811 19.35C219.171 19.57 219.631 19.77 220.191 19.95C220.771 20.13 221.501 20.3 222.381 20.46C224.581 20.86 226.261 21.53 227.421 22.47C228.581 23.41 229.161 24.8 229.161 26.64V27C229.161 27.98 228.981 28.87 228.621 29.67C228.281 30.45 227.781 31.12 227.121 31.68C226.461 32.24 225.661 32.67 224.721 32.97C223.781 33.27 222.721 33.42 221.541 33.42C220.161 33.42 218.941 33.23 217.881 32.85C216.841 32.45 215.971 31.91 215.271 31.23C214.571 30.53 214.041 29.72 213.681 28.8C213.321 27.86 213.141 26.84 213.141 25.74V24.84H217.101V25.56C217.101 26.82 217.461 27.83 218.181 28.59C218.921 29.33 220.061 29.7 221.601 29.7C222.801 29.7 223.691 29.44 224.271 28.92C224.851 28.4 225.141 27.78 225.141 27.06C225.141 26.72 225.081 26.4 224.961 26.1C224.841 25.78 224.631 25.5 224.331 25.26C224.031 25 223.621 24.77 223.101 24.57C222.581 24.37 221.921 24.2 221.121 24.06C220.061 23.88 219.091 23.65 218.211 23.37C217.331 23.07 216.561 22.68 215.901 22.2C215.261 21.72 214.761 21.12 214.401 20.4C214.041 19.68 213.861 18.8 213.861 17.76V17.58C213.861 16.72 214.031 15.93 214.371 15.21C214.731 14.47 215.221 13.83 215.841 13.29C216.481 12.75 217.241 12.33 218.121 12.03C219.021 11.73 220.021 11.58 221.121 11.58C222.361 11.58 223.461 11.76 224.421 12.12C225.381 12.46 226.181 12.93 226.821 13.53C227.481 14.13 227.971 14.82 228.291 15.6C228.631 16.38 228.801 17.2 228.801 18.06V19.14H224.841V18.42Z" fill="white"/>
<path d="M31.02 191.97V191.43H12V187.47H33V195.21L13.98 197.67V198.21H33V202.17H12L12 194.43L31.02 191.97ZM20.16 184.191C17.44 184.191 15.33 183.511 13.83 182.151C12.33 180.771 11.58 178.871 11.58 176.451C11.58 174.031 12.33 172.141 13.83 170.781C15.33 169.401 17.44 168.711 20.16 168.711H24.84C27.64 168.711 29.77 169.401 31.23 170.781C32.69 172.141 33.42 174.031 33.42 176.451C33.42 178.871 32.69 180.771 31.23 182.151C29.77 183.511 27.64 184.191 24.84 184.191H20.16ZM29.82 176.451C29.82 175.731 29.71 175.131 29.49 174.651C29.25 174.171 28.92 173.781 28.5 173.481C28.08 173.181 27.58 172.971 27 172.851C26.42 172.731 25.78 172.671 25.08 172.671H19.92C19.26 172.671 18.64 172.741 18.06 172.881C17.48 173.021 16.98 173.241 16.56 173.541C16.14 173.841 15.81 174.231 15.57 174.711C15.31 175.191 15.18 175.771 15.18 176.451C15.18 177.131 15.31 177.711 15.57 178.191C15.81 178.671 16.14 179.061 16.56 179.361C16.98 179.661 17.48 179.881 18.06 180.021C18.64 180.161 19.26 180.231 19.92 180.231H25.08C25.78 180.231 26.42 180.171 27 180.051C27.58 179.931 28.08 179.721 28.5 179.421C28.92 179.121 29.25 178.731 29.49 178.251C29.71 177.771 29.82 177.171 29.82 176.451ZM18.42 136.113C17.58 136.113 16.85 136.443 16.23 137.103C15.61 137.743 15.3 138.653 15.3 139.833C15.3 140.833 15.51 141.623 15.93 142.203C16.33 142.783 16.88 143.073 17.58 143.073C17.94 143.073 18.27 143.003 18.57 142.863C18.85 142.723 19.11 142.483 19.35 142.143C19.57 141.783 19.77 141.323 19.95 140.763C20.13 140.183 20.3 139.453 20.46 138.573C20.86 136.373 21.53 134.693 22.47 133.533C23.41 132.373 24.8 131.793 26.64 131.793H27C27.98 131.793 28.87 131.973 29.67 132.333C30.45 132.673 31.12 133.173 31.68 133.833C32.24 134.493 32.67 135.293 32.97 136.233C33.27 137.173 33.42 138.233 33.42 139.413C33.42 140.793 33.23 142.013 32.85 143.073C32.45 144.113 31.91 144.983 31.23 145.683C30.53 146.383 29.72 146.913 28.8 147.273C27.86 147.633 26.84 147.813 25.74 147.813H24.84V143.853H25.56C26.82 143.853 27.83 143.493 28.59 142.773C29.33 142.033 29.7 140.893 29.7 139.353C29.7 138.153 29.44 137.263 28.92 136.683C28.4 136.103 27.78 135.813 27.06 135.813C26.72 135.813 26.4 135.873 26.1 135.993C25.78 136.113 25.5 136.323 25.26 136.623C25 136.923 24.77 137.333 24.57 137.853C24.37 138.373 24.2 139.033 24.06 139.833C23.88 140.893 23.65 141.863 23.37 142.743C23.07 143.623 22.68 144.393 22.2 145.053C21.72 145.693 21.12 146.193 20.4 146.553C19.68 146.913 18.8 147.093 17.76 147.093H17.58C16.72 147.093 15.93 146.923 15.21 146.583C14.47 146.223 13.83 145.733 13.29 145.113C12.75 144.473 12.33 143.713 12.03 142.833C11.73 141.933 11.58 140.933 11.58 139.833C11.58 138.593 11.76 137.493 12.12 136.533C12.46 135.573 12.93 134.773 13.53 134.133C14.13 133.473 14.82 132.983 15.6 132.663C16.38 132.323 17.2 132.153 18.06 132.153H19.14V136.113H18.42ZM12 128.903L12 113.783H15.78V119.363H33V123.323H15.78V128.903H12ZM33 95.8643V99.8243H26.7C26.22 99.8243 25.83 99.9543 25.53 100.214C25.23 100.454 25.08 100.864 25.08 101.444V106.004H33V109.964H12L12 101.924C12 100.844 12.15 99.8943 12.45 99.0743C12.75 98.2543 13.17 97.5743 13.71 97.0343C14.23 96.4743 14.84 96.0543 15.54 95.7743C16.24 95.4743 16.99 95.3243 17.79 95.3243H18.51C19.37 95.3243 20.18 95.5543 20.94 96.0143C21.68 96.4743 22.25 97.1843 22.65 98.1443H23.19C23.27 97.4443 23.54 96.8943 24 96.4943C24.46 96.0743 25.04 95.8643 25.74 95.8643H33ZM21.3 106.004V102.224C21.3 101.264 21.08 100.534 20.64 100.034C20.18 99.5343 19.54 99.2843 18.72 99.2843H18.36C17.66 99.2843 17.06 99.5343 16.56 100.034C16.04 100.534 15.78 101.264 15.78 102.224V106.004H21.3ZM12 91.3252L12 78.0652H15.78V87.3652H20.58V78.4252H24.36V87.3652H29.22V77.7052H33V91.3252H12ZM18.42 62.636C17.58 62.636 16.85 62.966 16.23 63.626C15.61 64.266 15.3 65.176 15.3 66.356C15.3 67.356 15.51 68.146 15.93 68.726C16.33 69.306 16.88 69.596 17.58 69.596C17.94 69.596 18.27 69.526 18.57 69.386C18.85 69.246 19.11 69.006 19.35 68.666C19.57 68.306 19.77 67.846 19.95 67.286C20.13 66.706 20.3 65.976 20.46 65.096C20.86 62.896 21.53 61.216 22.47 60.056C23.41 58.896 24.8 58.316 26.64 58.316H27C27.98 58.316 28.87 58.496 29.67 58.856C30.45 59.196 31.12 59.696 31.68 60.356C32.24 61.016 32.67 61.816 32.97 62.756C33.27 63.696 33.42 64.756 33.42 65.936C33.42 67.316 33.23 68.536 32.85 69.596C32.45 70.636 31.91 71.506 31.23 72.206C30.53 72.906 29.72 73.436 28.8 73.796C27.86 74.156 26.84 74.336 25.74 74.336H24.84V70.376H25.56C26.82 70.376 27.83 70.016 28.59 69.296C29.33 68.556 29.7 67.416 29.7 65.876C29.7 64.676 29.44 63.786 28.92 63.206C28.4 62.626 27.78 62.336 27.06 62.336C26.72 62.336 26.4 62.396 26.1 62.516C25.78 62.636 25.5 62.846 25.26 63.146C25 63.446 24.77 63.856 24.57 64.376C24.37 64.896 24.2 65.556 24.06 66.356C23.88 67.416 23.65 68.386 23.37 69.266C23.07 70.146 22.68 70.916 22.2 71.576C21.72 72.216 21.12 72.716 20.4 73.076C19.68 73.436 18.8 73.616 17.76 73.616H17.58C16.72 73.616 15.93 73.446 15.21 73.106C14.47 72.746 13.83 72.256 13.29 71.636C12.75 70.996 12.33 70.236 12.03 69.356C11.73 68.456 11.58 67.456 11.58 66.356C11.58 65.116 11.76 64.016 12.12 63.056C12.46 62.096 12.93 61.296 13.53 60.656C14.13 59.996 14.82 59.506 15.6 59.186C16.38 58.846 17.2 58.676 18.06 58.676H19.14V62.636H18.42ZM18.42 44.2669C17.58 44.2669 16.85 44.5969 16.23 45.2569C15.61 45.8969 15.3 46.8069 15.3 47.9869C15.3 48.9869 15.51 49.7769 15.93 50.3569C16.33 50.9369 16.88 51.2269 17.58 51.2269C17.94 51.2269 18.27 51.1569 18.57 51.0169C18.85 50.8769 19.11 50.6369 19.35 50.2969C19.57 49.9369 19.77 49.4769 19.95 48.9169C20.13 48.3369 20.3 47.6069 20.46 46.7269C20.86 44.5269 21.53 42.8469 22.47 41.6869C23.41 40.5269 24.8 39.9469 26.64 39.9469H27C27.98 39.9469 28.87 40.1269 29.67 40.4869C30.45 40.8269 31.12 41.3269 31.68 41.9869C32.24 42.6469 32.67 43.4469 32.97 44.3869C33.27 45.3269 33.42 46.3869 33.42 47.5669C33.42 48.9469 33.23 50.1669 32.85 51.2269C32.45 52.2669 31.91 53.1369 31.23 53.8369C30.53 54.5369 29.72 55.0669 28.8 55.4269C27.86 55.7869 26.84 55.9669 25.74 55.9669H24.84V52.0069H25.56C26.82 52.0069 27.83 51.6469 28.59 50.9269C29.33 50.1869 29.7 49.0469 29.7 47.5069C29.7 46.3069 29.44 45.4169 28.92 44.8369C28.4 44.2569 27.78 43.9669 27.06 43.9669C26.72 43.9669 26.4 44.0269 26.1 44.1469C25.78 44.2669 25.5 44.4769 25.26 44.7769C25 45.0769 24.77 45.4869 24.57 46.0069C24.37 46.5269 24.2 47.1869 24.06 47.9869C23.88 49.0469 23.65 50.0169 23.37 50.8969C23.07 51.7769 22.68 52.5469 22.2 53.2069C21.72 53.8469 21.12 54.3469 20.4 54.7069C19.68 55.0669 18.8 55.2469 17.76 55.2469H17.58C16.72 55.2469 15.93 55.0769 15.21 54.7369C14.47 54.3769 13.83 53.8869 13.29 53.2669C12.75 52.6269 12.33 51.8669 12.03 50.9869C11.73 50.0869 11.58 49.0869 11.58 47.9869C11.58 46.7469 11.76 45.6469 12.12 44.6869C12.46 43.7269 12.93 42.9269 13.53 42.2869C14.13 41.6269 14.82 41.1369 15.6 40.8169C16.38 40.4769 17.2 40.3069 18.06 40.3069H19.14V44.2669H18.42Z" fill="white"/>
<path d="M210.98 50.03V50.57H230V54.53H209V46.79L228.02 44.33V43.79H209V39.83H230V47.57L210.98 50.03ZM221.84 57.8091C224.56 57.8091 226.67 58.4891 228.17 59.8491C229.67 61.2291 230.42 63.1291 230.42 65.5491C230.42 67.9691 229.67 69.8591 228.17 71.2191C226.67 72.5991 224.56 73.2891 221.84 73.2891H217.16C214.36 73.2891 212.23 72.5991 210.77 71.2191C209.31 69.8591 208.58 67.9691 208.58 65.5491C208.58 63.1291 209.31 61.2291 210.77 59.8491C212.23 58.4891 214.36 57.8091 217.16 57.8091H221.84ZM212.18 65.5491C212.18 66.2691 212.29 66.8691 212.51 67.3491C212.75 67.8291 213.08 68.2191 213.5 68.5191C213.92 68.8191 214.42 69.0291 215 69.1491C215.58 69.2691 216.22 69.3291 216.92 69.3291H222.08C222.74 69.3291 223.36 69.2591 223.94 69.1191C224.52 68.9791 225.02 68.7591 225.44 68.4591C225.86 68.1591 226.19 67.7691 226.43 67.2891C226.69 66.8091 226.82 66.2291 226.82 65.5491C226.82 64.8691 226.69 64.2891 226.43 63.8091C226.19 63.3291 225.86 62.9391 225.44 62.6391C225.02 62.3391 224.52 62.1191 223.94 61.9791C223.36 61.8391 222.74 61.7691 222.08 61.7691H216.92C216.22 61.7691 215.58 61.8291 215 61.9491C214.42 62.0691 213.92 62.2791 213.5 62.5791C213.08 62.8791 212.75 63.2691 212.51 63.7491C212.29 64.2291 212.18 64.8291 212.18 65.5491ZM223.58 105.887C224.42 105.887 225.15 105.557 225.77 104.897C226.39 104.257 226.7 103.347 226.7 102.167C226.7 101.167 226.49 100.377 226.07 99.7974C225.67 99.2174 225.12 98.9274 224.42 98.9274C224.06 98.9274 223.73 98.9974 223.43 99.1374C223.15 99.2774 222.89 99.5174 222.65 99.8574C222.43 100.217 222.23 100.677 222.05 101.237C221.87 101.817 221.7 102.547 221.54 103.427C221.14 105.627 220.47 107.307 219.53 108.467C218.59 109.627 217.2 110.207 215.36 110.207H215C214.02 110.207 213.13 110.027 212.33 109.667C211.55 109.327 210.88 108.827 210.32 108.167C209.76 107.507 209.33 106.707 209.03 105.767C208.73 104.827 208.58 103.767 208.58 102.587C208.58 101.207 208.77 99.9874 209.15 98.9274C209.55 97.8874 210.09 97.0174 210.77 96.3174C211.47 95.6174 212.28 95.0874 213.2 94.7274C214.14 94.3674 215.16 94.1874 216.26 94.1874H217.16V98.1474H216.44C215.18 98.1474 214.17 98.5074 213.41 99.2274C212.67 99.9674 212.3 101.107 212.3 102.647C212.3 103.847 212.56 104.737 213.08 105.317C213.6 105.897 214.22 106.187 214.94 106.187C215.28 106.187 215.6 106.127 215.9 106.007C216.22 105.887 216.5 105.677 216.74 105.377C217 105.077 217.23 104.667 217.43 104.147C217.63 103.627 217.8 102.967 217.94 102.167C218.12 101.107 218.35 100.137 218.63 99.2574C218.93 98.3774 219.32 97.6074 219.8 96.9474C220.28 96.3074 220.88 95.8074 221.6 95.4474C222.32 95.0874 223.2 94.9074 224.24 94.9074H224.42C225.28 94.9074 226.07 95.0774 226.79 95.4174C227.53 95.7774 228.17 96.2674 228.71 96.8874C229.25 97.5274 229.67 98.2874 229.97 99.1674C230.27 100.067 230.42 101.067 230.42 102.167C230.42 103.407 230.24 104.507 229.88 105.467C229.54 106.427 229.07 107.227 228.47 107.867C227.87 108.527 227.18 109.017 226.4 109.337C225.62 109.677 224.8 109.847 223.94 109.847H222.86V105.887H223.58ZM230 113.097V128.217H226.22V122.637H209V118.677H226.22V113.097H230ZM209 146.136V142.176H215.3C215.78 142.176 216.17 142.046 216.47 141.786C216.77 141.546 216.92 141.136 216.92 140.556V135.996H209V132.036H230V140.076C230 141.156 229.85 142.106 229.55 142.926C229.25 143.746 228.83 144.426 228.29 144.966C227.77 145.526 227.16 145.946 226.46 146.226C225.76 146.526 225.01 146.676 224.21 146.676H223.49C222.63 146.676 221.82 146.446 221.06 145.986C220.32 145.526 219.75 144.816 219.35 143.856H218.81C218.73 144.556 218.46 145.106 218 145.506C217.54 145.926 216.96 146.136 216.26 146.136H209ZM220.7 135.996V139.776C220.7 140.736 220.92 141.466 221.36 141.966C221.82 142.466 222.46 142.716 223.28 142.716H223.64C224.34 142.716 224.94 142.466 225.44 141.966C225.96 141.466 226.22 140.736 226.22 139.776V135.996H220.7ZM230 150.675V163.935H226.22V154.635H221.42V163.575H217.64V154.635H212.78V164.295H209V150.675H230ZM223.58 179.364C224.42 179.364 225.15 179.034 225.77 178.374C226.39 177.734 226.7 176.824 226.7 175.644C226.7 174.644 226.49 173.854 226.07 173.274C225.67 172.694 225.12 172.404 224.42 172.404C224.06 172.404 223.73 172.474 223.43 172.614C223.15 172.754 222.89 172.994 222.65 173.334C222.43 173.694 222.23 174.154 222.05 174.714C221.87 175.294 221.7 176.024 221.54 176.904C221.14 179.104 220.47 180.784 219.53 181.944C218.59 183.104 217.2 183.684 215.36 183.684H215C214.02 183.684 213.13 183.504 212.33 183.144C211.55 182.804 210.88 182.304 210.32 181.644C209.76 180.984 209.33 180.184 209.03 179.244C208.73 178.304 208.58 177.244 208.58 176.064C208.58 174.684 208.77 173.464 209.15 172.404C209.55 171.364 210.09 170.494 210.77 169.794C211.47 169.094 212.28 168.564 213.2 168.204C214.14 167.844 215.16 167.664 216.26 167.664H217.16V171.624H216.44C215.18 171.624 214.17 171.984 213.41 172.704C212.67 173.444 212.3 174.584 212.3 176.124C212.3 177.324 212.56 178.214 213.08 178.794C213.6 179.374 214.22 179.664 214.94 179.664C215.28 179.664 215.6 179.604 215.9 179.484C216.22 179.364 216.5 179.154 216.74 178.854C217 178.554 217.23 178.144 217.43 177.624C217.63 177.104 217.8 176.444 217.94 175.644C218.12 174.584 218.35 173.614 218.63 172.734C218.93 171.854 219.32 171.084 219.8 170.424C220.28 169.784 220.88 169.284 221.6 168.924C222.32 168.564 223.2 168.384 224.24 168.384H224.42C225.28 168.384 226.07 168.554 226.79 168.894C227.53 169.254 228.17 169.744 228.71 170.364C229.25 171.004 229.67 171.764 229.97 172.644C230.27 173.544 230.42 174.544 230.42 175.644C230.42 176.884 230.24 177.984 229.88 178.944C229.54 179.904 229.07 180.704 228.47 181.344C227.87 182.004 227.18 182.494 226.4 182.814C225.62 183.154 224.8 183.324 223.94 183.324H222.86V179.364H223.58ZM223.58 197.733C224.42 197.733 225.15 197.403 225.77 196.743C226.39 196.103 226.7 195.193 226.7 194.013C226.7 193.013 226.49 192.223 226.07 191.643C225.67 191.063 225.12 190.773 224.42 190.773C224.06 190.773 223.73 190.843 223.43 190.983C223.15 191.123 222.89 191.363 222.65 191.703C222.43 192.063 222.23 192.523 222.05 193.083C221.87 193.663 221.7 194.393 221.54 195.273C221.14 197.473 220.47 199.153 219.53 200.313C218.59 201.473 217.2 202.053 215.36 202.053H215C214.02 202.053 213.13 201.873 212.33 201.513C211.55 201.173 210.88 200.673 210.32 200.013C209.76 199.353 209.33 198.553 209.03 197.613C208.73 196.673 208.58 195.613 208.58 194.433C208.58 193.053 208.77 191.833 209.15 190.773C209.55 189.733 210.09 188.863 210.77 188.163C211.47 187.463 212.28 186.933 213.2 186.573C214.14 186.213 215.16 186.033 216.26 186.033H217.16V189.993H216.44C215.18 189.993 214.17 190.353 213.41 191.073C212.67 191.813 212.3 192.953 212.3 194.493C212.3 195.693 212.56 196.583 213.08 197.163C213.6 197.743 214.22 198.033 214.94 198.033C215.28 198.033 215.6 197.973 215.9 197.853C216.22 197.733 216.5 197.523 216.74 197.223C217 196.923 217.23 196.513 217.43 195.993C217.63 195.473 217.8 194.813 217.94 194.013C218.12 192.953 218.35 191.983 218.63 191.103C218.93 190.223 219.32 189.453 219.8 188.793C220.28 188.153 220.88 187.653 221.6 187.293C222.32 186.933 223.2 186.753 224.24 186.753H224.42C225.28 186.753 226.07 186.923 226.79 187.263C227.53 187.623 228.17 188.113 228.71 188.733C229.25 189.373 229.67 190.133 229.97 191.013C230.27 191.913 230.42 192.913 230.42 194.013C230.42 195.253 230.24 196.353 229.88 197.313C229.54 198.273 229.07 199.073 228.47 199.713C227.87 200.373 227.18 200.863 226.4 201.183C225.62 201.523 224.8 201.693 223.94 201.693H222.86V197.733H223.58Z" fill="white"/>
</svg>
