<svg width="2678" height="491" viewBox="0 0 2678 491" fill="none" xmlns="http://www.w3.org/2000/svg">
<path d="M140.833 53.3469C151.064 21.5551 180.644 0 214.041 0C266.464 0 303.522 51.2999 287.051 101.068L175.12 439.27C164.901 470.15 136.037 491 103.511 491C52.3564 491 16.038 441.16 31.7078 392.465L140.833 53.3469Z" fill="url(#paint0_linear_145_311)"/>
<path d="M284.333 53.3469C294.564 21.5551 324.144 0 357.541 0C409.964 0 447.022 51.2999 430.551 101.068L318.62 439.27C308.401 470.15 279.537 491 247.011 491C195.856 491 159.538 441.16 175.208 392.465L284.333 53.3469Z" fill="url(#paint1_linear_145_311)"/>
<path d="M427.833 53.3469C438.064 21.5551 467.644 0 501.041 0C553.464 0 590.522 51.2999 574.051 101.068L462.12 439.27C451.901 470.15 423.037 491 390.511 491C339.356 491 303.038 441.16 318.708 392.465L427.833 53.3469Z" fill="url(#paint2_linear_145_311)"/>
<path d="M571.333 53.3469C581.564 21.5551 611.144 0 644.541 0C696.964 0 734.022 51.2999 717.551 101.068L605.62 439.27C595.401 470.15 566.537 491 534.011 491C482.856 491 446.538 441.16 462.208 392.465L571.333 53.3469Z" fill="url(#paint3_linear_145_311)"/>
<path d="M714.833 53.3469C725.064 21.5551 754.644 0 788.041 0C840.464 0 877.522 51.2999 861.051 101.068L749.12 439.27C738.901 470.15 710.037 491 677.511 491C626.356 491 590.038 441.16 605.708 392.465L714.833 53.3469Z" fill="url(#paint4_linear_145_311)"/>
<path d="M858.333 53.3469C868.564 21.5551 898.144 0 931.541 0C983.964 0 1021.02 51.2999 1004.55 101.068L892.62 439.27C882.401 470.15 853.537 491 821.011 491C769.856 491 733.538 441.16 749.208 392.465L858.333 53.3469Z" fill="url(#paint5_linear_145_311)"/>
<path d="M1001.83 53.3469C1012.06 21.5551 1041.64 0 1075.04 0C1127.46 0 1164.52 51.2999 1148.05 101.068L1036.12 439.27C1025.9 470.15 997.037 491 964.511 491C913.356 491 877.038 441.16 892.708 392.465L1001.83 53.3469Z" fill="url(#paint6_linear_145_311)"/>
<path d="M1145.33 53.3469C1155.56 21.5551 1185.14 0 1218.54 0C1270.96 0 1308.02 51.2999 1291.55 101.068L1179.62 439.27C1169.4 470.15 1140.54 491 1108.01 491C1056.86 491 1020.54 441.16 1036.21 392.465L1145.33 53.3469Z" fill="url(#paint7_linear_145_311)"/>
<path d="M1288.83 53.3469C1299.06 21.5551 1328.64 0 1362.04 0C1414.46 0 1451.52 51.2999 1435.05 101.068L1323.12 439.27C1312.9 470.15 1284.04 491 1251.51 491C1200.36 491 1164.04 441.16 1179.71 392.465L1288.83 53.3469Z" fill="url(#paint8_linear_145_311)"/>
<path d="M1432.33 53.3469C1442.56 21.5551 1472.14 0 1505.54 0C1557.96 0 1595.02 51.2999 1578.55 101.068L1466.62 439.27C1456.4 470.15 1427.54 491 1395.01 491C1343.86 491 1307.54 441.16 1323.21 392.465L1432.33 53.3469Z" fill="url(#paint9_linear_145_311)"/>
<path d="M1575.83 53.3469C1586.06 21.5551 1615.64 0 1649.04 0C1701.46 0 1738.52 51.2999 1722.05 101.068L1610.12 439.27C1599.9 470.15 1571.04 491 1538.51 491C1487.36 491 1451.04 441.16 1466.71 392.465L1575.83 53.3469Z" fill="url(#paint10_linear_145_311)"/>
<path d="M1719.33 53.3469C1729.56 21.5551 1759.14 0 1792.54 0C1844.96 0 1882.02 51.2999 1865.55 101.068L1753.62 439.27C1743.4 470.15 1714.54 491 1682.01 491C1630.86 491 1594.54 441.16 1610.21 392.465L1719.33 53.3469Z" fill="url(#paint11_linear_145_311)"/>
<path d="M1862.83 53.3469C1873.06 21.5551 1902.64 0 1936.04 0C1988.46 0 2025.52 51.2999 2009.05 101.068L1897.12 439.27C1886.9 470.15 1858.04 491 1825.51 491C1774.36 491 1738.04 441.16 1753.71 392.465L1862.83 53.3469Z" fill="url(#paint12_linear_145_311)"/>
<path d="M2006.33 53.3469C2016.56 21.5551 2046.14 0 2079.54 0C2131.96 0 2169.02 51.2999 2152.55 101.068L2040.62 439.27C2030.4 470.15 2001.54 491 1969.01 491C1917.86 491 1881.54 441.16 1897.21 392.465L2006.33 53.3469Z" fill="url(#paint13_linear_145_311)"/>
<path d="M2149.83 53.3469C2160.06 21.5551 2189.64 0 2223.04 0C2275.46 0 2312.52 51.2999 2296.05 101.068L2184.12 439.27C2173.9 470.15 2145.04 491 2112.51 491C2061.36 491 2025.04 441.16 2040.71 392.465L2149.83 53.3469Z" fill="url(#paint14_linear_145_311)"/>
<path d="M2293.33 53.3469C2303.56 21.5551 2333.14 0 2366.54 0C2418.96 0 2456.02 51.2999 2439.55 101.068L2327.62 439.27C2317.4 470.15 2288.54 491 2256.01 491C2204.86 491 2168.54 441.16 2184.21 392.465L2293.33 53.3469Z" fill="url(#paint15_linear_145_311)"/>
<path d="M2436.83 53.3469C2447.06 21.5551 2476.64 0 2510.04 0C2562.46 0 2599.52 51.2999 2583.05 101.068L2471.12 439.27C2460.9 470.15 2432.04 491 2399.51 491C2348.36 491 2312.04 441.16 2327.71 392.465L2436.83 53.3469Z" fill="url(#paint16_linear_145_311)"/>
<path d="M2580.33 53.3469C2590.56 21.5551 2620.14 0 2653.54 0C2705.96 0 2743.02 51.2999 2726.55 101.068L2614.62 439.27C2604.4 470.15 2575.54 491 2543.01 491C2491.86 491 2455.54 441.16 2471.21 392.465L2580.33 53.3469Z" fill="url(#paint17_linear_145_311)"/>
<path d="M2723.83 53.3469C2734.06 21.5551 2763.64 0 2797.04 0C2849.46 0 2886.52 51.2999 2870.05 101.068L2758.12 439.27C2747.9 470.15 2719.04 491 2686.51 491C2635.36 491 2599.04 441.16 2614.71 392.465L2723.83 53.3469Z" fill="url(#paint18_linear_145_311)"/>
<defs>
<linearGradient id="paint0_linear_145_311" x1="289" y1="51.5" x2="1.23482e-05" y2="300.5" gradientUnits="userSpaceOnUse">
<stop offset="0.289375" stop-color="#133EB4"/>
<stop offset="1"/>
</linearGradient>
<linearGradient id="paint1_linear_145_311" x1="432.5" y1="51.5" x2="143.5" y2="300.5" gradientUnits="userSpaceOnUse">
<stop offset="0.289375" stop-color="#133EB4"/>
<stop offset="1"/>
</linearGradient>
<linearGradient id="paint2_linear_145_311" x1="576" y1="51.5" x2="287" y2="300.5" gradientUnits="userSpaceOnUse">
<stop offset="0.289375" stop-color="#133EB4"/>
<stop offset="1"/>
</linearGradient>
<linearGradient id="paint3_linear_145_311" x1="719.5" y1="51.5" x2="430.5" y2="300.5" gradientUnits="userSpaceOnUse">
<stop offset="0.289375" stop-color="#133EB4"/>
<stop offset="1"/>
</linearGradient>
<linearGradient id="paint4_linear_145_311" x1="863" y1="51.5" x2="574" y2="300.5" gradientUnits="userSpaceOnUse">
<stop offset="0.289375" stop-color="#133EB4"/>
<stop offset="1"/>
</linearGradient>
<linearGradient id="paint5_linear_145_311" x1="1006.5" y1="51.5" x2="717.5" y2="300.5" gradientUnits="userSpaceOnUse">
<stop offset="0.289375" stop-color="#133EB4"/>
<stop offset="1"/>
</linearGradient>
<linearGradient id="paint6_linear_145_311" x1="1150" y1="51.5" x2="861" y2="300.5" gradientUnits="userSpaceOnUse">
<stop offset="0.289375" stop-color="#133EB4"/>
<stop offset="1"/>
</linearGradient>
<linearGradient id="paint7_linear_145_311" x1="1293.5" y1="51.5" x2="1004.5" y2="300.5" gradientUnits="userSpaceOnUse">
<stop offset="0.289375" stop-color="#133EB4"/>
<stop offset="1"/>
</linearGradient>
<linearGradient id="paint8_linear_145_311" x1="1437" y1="51.5" x2="1148" y2="300.5" gradientUnits="userSpaceOnUse">
<stop offset="0.289375" stop-color="#133EB4"/>
<stop offset="1"/>
</linearGradient>
<linearGradient id="paint9_linear_145_311" x1="1580.5" y1="51.5" x2="1291.5" y2="300.5" gradientUnits="userSpaceOnUse">
<stop offset="0.289375" stop-color="#133EB4"/>
<stop offset="1"/>
</linearGradient>
<linearGradient id="paint10_linear_145_311" x1="1724" y1="51.5" x2="1435" y2="300.5" gradientUnits="userSpaceOnUse">
<stop offset="0.289375" stop-color="#133EB4"/>
<stop offset="1"/>
</linearGradient>
<linearGradient id="paint11_linear_145_311" x1="1867.5" y1="51.5" x2="1578.5" y2="300.5" gradientUnits="userSpaceOnUse">
<stop offset="0.289375" stop-color="#133EB4"/>
<stop offset="1"/>
</linearGradient>
<linearGradient id="paint12_linear_145_311" x1="2011" y1="51.5" x2="1722" y2="300.5" gradientUnits="userSpaceOnUse">
<stop offset="0.289375" stop-color="#133EB4"/>
<stop offset="1"/>
</linearGradient>
<linearGradient id="paint13_linear_145_311" x1="2154.5" y1="51.5" x2="1865.5" y2="300.5" gradientUnits="userSpaceOnUse">
<stop offset="0.289375" stop-color="#133EB4"/>
<stop offset="1"/>
</linearGradient>
<linearGradient id="paint14_linear_145_311" x1="2298" y1="51.5" x2="2009" y2="300.5" gradientUnits="userSpaceOnUse">
<stop offset="0.289375" stop-color="#133EB4"/>
<stop offset="1"/>
</linearGradient>
<linearGradient id="paint15_linear_145_311" x1="2441.5" y1="51.5" x2="2152.5" y2="300.5" gradientUnits="userSpaceOnUse">
<stop offset="0.289375" stop-color="#133EB4"/>
<stop offset="1"/>
</linearGradient>
<linearGradient id="paint16_linear_145_311" x1="2585" y1="51.5" x2="2296" y2="300.5" gradientUnits="userSpaceOnUse">
<stop offset="0.289375" stop-color="#133EB4"/>
<stop offset="1"/>
</linearGradient>
<linearGradient id="paint17_linear_145_311" x1="2728.5" y1="51.5" x2="2439.5" y2="300.5" gradientUnits="userSpaceOnUse">
<stop offset="0.289375" stop-color="#133EB4"/>
<stop offset="1"/>
</linearGradient>
<linearGradient id="paint18_linear_145_311" x1="2872" y1="51.5" x2="2583" y2="300.5" gradientUnits="userSpaceOnUse">
<stop offset="0.289375" stop-color="#133EB4"/>
<stop offset="1"/>
</linearGradient>
</defs>
</svg>
