<svg width="2723" height="499" viewBox="0 0 2723 499" fill="none" xmlns="http://www.w3.org/2000/svg">
<path d="M-37 74.75C-37 33.4667 -3.53328 0 37.75 0C79.0333 0 112.5 33.4667 112.5 74.75V424.25C112.5 465.533 79.0333 499 37.75 499C-3.53328 499 -37 465.533 -37 424.25V74.75Z" fill="url(#paint0_linear_145_309)"/>
<path d="M-37 74.75C-37 33.4667 -3.53328 0 37.75 0C79.0333 0 112.5 33.4667 112.5 74.75V424.25C112.5 465.533 79.0333 499 37.75 499C-3.53328 499 -37 465.533 -37 424.25V74.75Z" fill="url(#paint1_linear_145_309)"/>
<path d="M86.5 74.75C86.5 33.4667 119.967 0 161.25 0C202.533 0 236 33.4667 236 74.75V424.25C236 465.533 202.533 499 161.25 499C119.967 499 86.5 465.533 86.5 424.25V74.75Z" fill="url(#paint2_linear_145_309)"/>
<path d="M86.5 74.75C86.5 33.4667 119.967 0 161.25 0C202.533 0 236 33.4667 236 74.75V424.25C236 465.533 202.533 499 161.25 499C119.967 499 86.5 465.533 86.5 424.25V74.75Z" fill="url(#paint3_linear_145_309)"/>
<path d="M210 74.75C210 33.4667 243.467 0 284.75 0C326.033 0 359.5 33.4667 359.5 74.75V424.25C359.5 465.533 326.033 499 284.75 499C243.467 499 210 465.533 210 424.25V74.75Z" fill="url(#paint4_linear_145_309)"/>
<path d="M210 74.75C210 33.4667 243.467 0 284.75 0C326.033 0 359.5 33.4667 359.5 74.75V424.25C359.5 465.533 326.033 499 284.75 499C243.467 499 210 465.533 210 424.25V74.75Z" fill="url(#paint5_linear_145_309)"/>
<path d="M333.5 74.75C333.5 33.4667 366.967 0 408.25 0C449.533 0 483 33.4667 483 74.75V424.25C483 465.533 449.533 499 408.25 499C366.967 499 333.5 465.533 333.5 424.25V74.75Z" fill="url(#paint6_linear_145_309)"/>
<path d="M333.5 74.75C333.5 33.4667 366.967 0 408.25 0C449.533 0 483 33.4667 483 74.75V424.25C483 465.533 449.533 499 408.25 499C366.967 499 333.5 465.533 333.5 424.25V74.75Z" fill="url(#paint7_linear_145_309)"/>
<path d="M457 74.75C457 33.4667 490.467 0 531.75 0C573.033 0 606.5 33.4667 606.5 74.75V424.25C606.5 465.533 573.033 499 531.75 499C490.467 499 457 465.533 457 424.25V74.75Z" fill="url(#paint8_linear_145_309)"/>
<path d="M457 74.75C457 33.4667 490.467 0 531.75 0C573.033 0 606.5 33.4667 606.5 74.75V424.25C606.5 465.533 573.033 499 531.75 499C490.467 499 457 465.533 457 424.25V74.75Z" fill="url(#paint9_linear_145_309)"/>
<path d="M580.5 74.75C580.5 33.4667 613.967 0 655.25 0C696.533 0 730 33.4667 730 74.75V424.25C730 465.533 696.533 499 655.25 499C613.967 499 580.5 465.533 580.5 424.25V74.75Z" fill="url(#paint10_linear_145_309)"/>
<path d="M580.5 74.75C580.5 33.4667 613.967 0 655.25 0C696.533 0 730 33.4667 730 74.75V424.25C730 465.533 696.533 499 655.25 499C613.967 499 580.5 465.533 580.5 424.25V74.75Z" fill="url(#paint11_linear_145_309)"/>
<path d="M704 74.75C704 33.4667 737.467 0 778.75 0C820.033 0 853.5 33.4667 853.5 74.75V424.25C853.5 465.533 820.033 499 778.75 499C737.467 499 704 465.533 704 424.25V74.75Z" fill="url(#paint12_linear_145_309)"/>
<path d="M704 74.75C704 33.4667 737.467 0 778.75 0C820.033 0 853.5 33.4667 853.5 74.75V424.25C853.5 465.533 820.033 499 778.75 499C737.467 499 704 465.533 704 424.25V74.75Z" fill="url(#paint13_linear_145_309)"/>
<path d="M827.5 74.75C827.5 33.4667 860.967 0 902.25 0C943.533 0 977 33.4667 977 74.75V424.25C977 465.533 943.533 499 902.25 499C860.967 499 827.5 465.533 827.5 424.25V74.75Z" fill="url(#paint14_linear_145_309)"/>
<path d="M827.5 74.75C827.5 33.4667 860.967 0 902.25 0C943.533 0 977 33.4667 977 74.75V424.25C977 465.533 943.533 499 902.25 499C860.967 499 827.5 465.533 827.5 424.25V74.75Z" fill="url(#paint15_linear_145_309)"/>
<path d="M951 74.75C951 33.4667 984.467 0 1025.75 0C1067.03 0 1100.5 33.4667 1100.5 74.75V424.25C1100.5 465.533 1067.03 499 1025.75 499C984.467 499 951 465.533 951 424.25V74.75Z" fill="url(#paint16_linear_145_309)"/>
<path d="M951 74.75C951 33.4667 984.467 0 1025.75 0C1067.03 0 1100.5 33.4667 1100.5 74.75V424.25C1100.5 465.533 1067.03 499 1025.75 499C984.467 499 951 465.533 951 424.25V74.75Z" fill="url(#paint17_linear_145_309)"/>
<path d="M1074.5 74.75C1074.5 33.4667 1107.97 0 1149.25 0C1190.53 0 1224 33.4667 1224 74.75V424.25C1224 465.533 1190.53 499 1149.25 499C1107.97 499 1074.5 465.533 1074.5 424.25V74.75Z" fill="url(#paint18_linear_145_309)"/>
<path d="M1074.5 74.75C1074.5 33.4667 1107.97 0 1149.25 0C1190.53 0 1224 33.4667 1224 74.75V424.25C1224 465.533 1190.53 499 1149.25 499C1107.97 499 1074.5 465.533 1074.5 424.25V74.75Z" fill="url(#paint19_linear_145_309)"/>
<path d="M1198 74.75C1198 33.4667 1231.47 0 1272.75 0C1314.03 0 1347.5 33.4667 1347.5 74.75V424.25C1347.5 465.533 1314.03 499 1272.75 499C1231.47 499 1198 465.533 1198 424.25V74.75Z" fill="url(#paint20_linear_145_309)"/>
<path d="M1198 74.75C1198 33.4667 1231.47 0 1272.75 0C1314.03 0 1347.5 33.4667 1347.5 74.75V424.25C1347.5 465.533 1314.03 499 1272.75 499C1231.47 499 1198 465.533 1198 424.25V74.75Z" fill="url(#paint21_linear_145_309)"/>
<path d="M1321.5 74.75C1321.5 33.4667 1354.97 0 1396.25 0C1437.53 0 1471 33.4667 1471 74.75V424.25C1471 465.533 1437.53 499 1396.25 499C1354.97 499 1321.5 465.533 1321.5 424.25V74.75Z" fill="url(#paint22_linear_145_309)"/>
<path d="M1321.5 74.75C1321.5 33.4667 1354.97 0 1396.25 0C1437.53 0 1471 33.4667 1471 74.75V424.25C1471 465.533 1437.53 499 1396.25 499C1354.97 499 1321.5 465.533 1321.5 424.25V74.75Z" fill="url(#paint23_linear_145_309)"/>
<path d="M1445 74.75C1445 33.4667 1478.47 0 1519.75 0C1561.03 0 1594.5 33.4667 1594.5 74.75V424.25C1594.5 465.533 1561.03 499 1519.75 499C1478.47 499 1445 465.533 1445 424.25V74.75Z" fill="url(#paint24_linear_145_309)"/>
<path d="M1445 74.75C1445 33.4667 1478.47 0 1519.75 0C1561.03 0 1594.5 33.4667 1594.5 74.75V424.25C1594.5 465.533 1561.03 499 1519.75 499C1478.47 499 1445 465.533 1445 424.25V74.75Z" fill="url(#paint25_linear_145_309)"/>
<path d="M1568.5 74.75C1568.5 33.4667 1601.97 0 1643.25 0C1684.53 0 1718 33.4667 1718 74.75V424.25C1718 465.533 1684.53 499 1643.25 499C1601.97 499 1568.5 465.533 1568.5 424.25V74.75Z" fill="url(#paint26_linear_145_309)"/>
<path d="M1568.5 74.75C1568.5 33.4667 1601.97 0 1643.25 0C1684.53 0 1718 33.4667 1718 74.75V424.25C1718 465.533 1684.53 499 1643.25 499C1601.97 499 1568.5 465.533 1568.5 424.25V74.75Z" fill="url(#paint27_linear_145_309)"/>
<path d="M1692 74.75C1692 33.4667 1725.47 0 1766.75 0C1808.03 0 1841.5 33.4667 1841.5 74.75V424.25C1841.5 465.533 1808.03 499 1766.75 499C1725.47 499 1692 465.533 1692 424.25V74.75Z" fill="url(#paint28_linear_145_309)"/>
<path d="M1692 74.75C1692 33.4667 1725.47 0 1766.75 0C1808.03 0 1841.5 33.4667 1841.5 74.75V424.25C1841.5 465.533 1808.03 499 1766.75 499C1725.47 499 1692 465.533 1692 424.25V74.75Z" fill="url(#paint29_linear_145_309)"/>
<path d="M1815.5 74.75C1815.5 33.4667 1848.97 0 1890.25 0C1931.53 0 1965 33.4667 1965 74.75V424.25C1965 465.533 1931.53 499 1890.25 499C1848.97 499 1815.5 465.533 1815.5 424.25V74.75Z" fill="url(#paint30_linear_145_309)"/>
<path d="M1815.5 74.75C1815.5 33.4667 1848.97 0 1890.25 0C1931.53 0 1965 33.4667 1965 74.75V424.25C1965 465.533 1931.53 499 1890.25 499C1848.97 499 1815.5 465.533 1815.5 424.25V74.75Z" fill="url(#paint31_linear_145_309)"/>
<path d="M1939 74.75C1939 33.4667 1972.47 0 2013.75 0C2055.03 0 2088.5 33.4667 2088.5 74.75V424.25C2088.5 465.533 2055.03 499 2013.75 499C1972.47 499 1939 465.533 1939 424.25V74.75Z" fill="url(#paint32_linear_145_309)"/>
<path d="M1939 74.75C1939 33.4667 1972.47 0 2013.75 0C2055.03 0 2088.5 33.4667 2088.5 74.75V424.25C2088.5 465.533 2055.03 499 2013.75 499C1972.47 499 1939 465.533 1939 424.25V74.75Z" fill="url(#paint33_linear_145_309)"/>
<path d="M2062.5 74.75C2062.5 33.4667 2095.97 0 2137.25 0C2178.53 0 2212 33.4667 2212 74.75V424.25C2212 465.533 2178.53 499 2137.25 499C2095.97 499 2062.5 465.533 2062.5 424.25V74.75Z" fill="url(#paint34_linear_145_309)"/>
<path d="M2062.5 74.75C2062.5 33.4667 2095.97 0 2137.25 0C2178.53 0 2212 33.4667 2212 74.75V424.25C2212 465.533 2178.53 499 2137.25 499C2095.97 499 2062.5 465.533 2062.5 424.25V74.75Z" fill="url(#paint35_linear_145_309)"/>
<path d="M2186 74.75C2186 33.4667 2219.47 0 2260.75 0C2302.03 0 2335.5 33.4667 2335.5 74.75V424.25C2335.5 465.533 2302.03 499 2260.75 499C2219.47 499 2186 465.533 2186 424.25V74.75Z" fill="url(#paint36_linear_145_309)"/>
<path d="M2186 74.75C2186 33.4667 2219.47 0 2260.75 0C2302.03 0 2335.5 33.4667 2335.5 74.75V424.25C2335.5 465.533 2302.03 499 2260.75 499C2219.47 499 2186 465.533 2186 424.25V74.75Z" fill="url(#paint37_linear_145_309)"/>
<path d="M2309.5 74.75C2309.5 33.4667 2342.97 0 2384.25 0C2425.53 0 2459 33.4667 2459 74.75V424.25C2459 465.533 2425.53 499 2384.25 499C2342.97 499 2309.5 465.533 2309.5 424.25V74.75Z" fill="url(#paint38_linear_145_309)"/>
<path d="M2309.5 74.75C2309.5 33.4667 2342.97 0 2384.25 0C2425.53 0 2459 33.4667 2459 74.75V424.25C2459 465.533 2425.53 499 2384.25 499C2342.97 499 2309.5 465.533 2309.5 424.25V74.75Z" fill="url(#paint39_linear_145_309)"/>
<path d="M2433 74.75C2433 33.4667 2466.47 0 2507.75 0C2549.03 0 2582.5 33.4667 2582.5 74.75V424.25C2582.5 465.533 2549.03 499 2507.75 499C2466.47 499 2433 465.533 2433 424.25V74.75Z" fill="url(#paint40_linear_145_309)"/>
<path d="M2433 74.75C2433 33.4667 2466.47 0 2507.75 0C2549.03 0 2582.5 33.4667 2582.5 74.75V424.25C2582.5 465.533 2549.03 499 2507.75 499C2466.47 499 2433 465.533 2433 424.25V74.75Z" fill="url(#paint41_linear_145_309)"/>
<path d="M2556.5 74.75C2556.5 33.4667 2589.97 0 2631.25 0C2672.53 0 2706 33.4667 2706 74.75V424.25C2706 465.533 2672.53 499 2631.25 499C2589.97 499 2556.5 465.533 2556.5 424.25V74.75Z" fill="url(#paint42_linear_145_309)"/>
<path d="M2556.5 74.75C2556.5 33.4667 2589.97 0 2631.25 0C2672.53 0 2706 33.4667 2706 74.75V424.25C2706 465.533 2672.53 499 2631.25 499C2589.97 499 2556.5 465.533 2556.5 424.25V74.75Z" fill="url(#paint43_linear_145_309)"/>
<path d="M2680 74.75C2680 33.4667 2713.47 0 2754.75 0C2796.03 0 2829.5 33.4667 2829.5 74.75V424.25C2829.5 465.533 2796.03 499 2754.75 499C2713.47 499 2680 465.533 2680 424.25V74.75Z" fill="url(#paint44_linear_145_309)"/>
<path d="M2680 74.75C2680 33.4667 2713.47 0 2754.75 0C2796.03 0 2829.5 33.4667 2829.5 74.75V424.25C2829.5 465.533 2796.03 499 2754.75 499C2713.47 499 2680 465.533 2680 424.25V74.75Z" fill="url(#paint45_linear_145_309)"/>
<defs>
<linearGradient id="paint0_linear_145_309" x1="252" y1="59.5" x2="-37" y2="308.5" gradientUnits="userSpaceOnUse">
<stop offset="0.289375" stop-color="#133EB4"/>
<stop offset="1"/>
</linearGradient>
<linearGradient id="paint1_linear_145_309" x1="252" y1="59.5" x2="-37" y2="308.5" gradientUnits="userSpaceOnUse">
<stop offset="0.289375" stop-color="#133EB4"/>
<stop offset="1"/>
</linearGradient>
<linearGradient id="paint2_linear_145_309" x1="375.5" y1="59.5" x2="86.5" y2="308.5" gradientUnits="userSpaceOnUse">
<stop offset="0.289375" stop-color="#133EB4"/>
<stop offset="1"/>
</linearGradient>
<linearGradient id="paint3_linear_145_309" x1="375.5" y1="59.5" x2="86.5" y2="308.5" gradientUnits="userSpaceOnUse">
<stop offset="0.289375" stop-color="#133EB4"/>
<stop offset="1"/>
</linearGradient>
<linearGradient id="paint4_linear_145_309" x1="499" y1="59.5" x2="210" y2="308.5" gradientUnits="userSpaceOnUse">
<stop offset="0.289375" stop-color="#133EB4"/>
<stop offset="1"/>
</linearGradient>
<linearGradient id="paint5_linear_145_309" x1="499" y1="59.5" x2="210" y2="308.5" gradientUnits="userSpaceOnUse">
<stop offset="0.289375" stop-color="#133EB4"/>
<stop offset="1"/>
</linearGradient>
<linearGradient id="paint6_linear_145_309" x1="622.5" y1="59.5" x2="333.5" y2="308.5" gradientUnits="userSpaceOnUse">
<stop offset="0.289375" stop-color="#133EB4"/>
<stop offset="1"/>
</linearGradient>
<linearGradient id="paint7_linear_145_309" x1="622.5" y1="59.5" x2="333.5" y2="308.5" gradientUnits="userSpaceOnUse">
<stop offset="0.289375" stop-color="#133EB4"/>
<stop offset="1"/>
</linearGradient>
<linearGradient id="paint8_linear_145_309" x1="746" y1="59.5" x2="457" y2="308.5" gradientUnits="userSpaceOnUse">
<stop offset="0.289375" stop-color="#133EB4"/>
<stop offset="1"/>
</linearGradient>
<linearGradient id="paint9_linear_145_309" x1="746" y1="59.5" x2="457" y2="308.5" gradientUnits="userSpaceOnUse">
<stop offset="0.289375" stop-color="#133EB4"/>
<stop offset="1"/>
</linearGradient>
<linearGradient id="paint10_linear_145_309" x1="869.5" y1="59.5" x2="580.5" y2="308.5" gradientUnits="userSpaceOnUse">
<stop offset="0.289375" stop-color="#133EB4"/>
<stop offset="1"/>
</linearGradient>
<linearGradient id="paint11_linear_145_309" x1="869.5" y1="59.5" x2="580.5" y2="308.5" gradientUnits="userSpaceOnUse">
<stop offset="0.289375" stop-color="#133EB4"/>
<stop offset="1"/>
</linearGradient>
<linearGradient id="paint12_linear_145_309" x1="993" y1="59.5" x2="704" y2="308.5" gradientUnits="userSpaceOnUse">
<stop offset="0.289375" stop-color="#133EB4"/>
<stop offset="1"/>
</linearGradient>
<linearGradient id="paint13_linear_145_309" x1="993" y1="59.5" x2="704" y2="308.5" gradientUnits="userSpaceOnUse">
<stop offset="0.289375" stop-color="#133EB4"/>
<stop offset="1"/>
</linearGradient>
<linearGradient id="paint14_linear_145_309" x1="1116.5" y1="59.5" x2="827.5" y2="308.5" gradientUnits="userSpaceOnUse">
<stop offset="0.289375" stop-color="#133EB4"/>
<stop offset="1"/>
</linearGradient>
<linearGradient id="paint15_linear_145_309" x1="1116.5" y1="59.5" x2="827.5" y2="308.5" gradientUnits="userSpaceOnUse">
<stop offset="0.289375" stop-color="#133EB4"/>
<stop offset="1"/>
</linearGradient>
<linearGradient id="paint16_linear_145_309" x1="1240" y1="59.5" x2="951" y2="308.5" gradientUnits="userSpaceOnUse">
<stop offset="0.289375" stop-color="#133EB4"/>
<stop offset="1"/>
</linearGradient>
<linearGradient id="paint17_linear_145_309" x1="1240" y1="59.5" x2="951" y2="308.5" gradientUnits="userSpaceOnUse">
<stop offset="0.289375" stop-color="#133EB4"/>
<stop offset="1"/>
</linearGradient>
<linearGradient id="paint18_linear_145_309" x1="1363.5" y1="59.5" x2="1074.5" y2="308.5" gradientUnits="userSpaceOnUse">
<stop offset="0.289375" stop-color="#133EB4"/>
<stop offset="1"/>
</linearGradient>
<linearGradient id="paint19_linear_145_309" x1="1363.5" y1="59.5" x2="1074.5" y2="308.5" gradientUnits="userSpaceOnUse">
<stop offset="0.289375" stop-color="#133EB4"/>
<stop offset="1"/>
</linearGradient>
<linearGradient id="paint20_linear_145_309" x1="1487" y1="59.5" x2="1198" y2="308.5" gradientUnits="userSpaceOnUse">
<stop offset="0.289375" stop-color="#133EB4"/>
<stop offset="1"/>
</linearGradient>
<linearGradient id="paint21_linear_145_309" x1="1487" y1="59.5" x2="1198" y2="308.5" gradientUnits="userSpaceOnUse">
<stop offset="0.289375" stop-color="#133EB4"/>
<stop offset="1"/>
</linearGradient>
<linearGradient id="paint22_linear_145_309" x1="1610.5" y1="59.5" x2="1321.5" y2="308.5" gradientUnits="userSpaceOnUse">
<stop offset="0.289375" stop-color="#133EB4"/>
<stop offset="1"/>
</linearGradient>
<linearGradient id="paint23_linear_145_309" x1="1610.5" y1="59.5" x2="1321.5" y2="308.5" gradientUnits="userSpaceOnUse">
<stop offset="0.289375" stop-color="#133EB4"/>
<stop offset="1"/>
</linearGradient>
<linearGradient id="paint24_linear_145_309" x1="1734" y1="59.5" x2="1445" y2="308.5" gradientUnits="userSpaceOnUse">
<stop offset="0.289375" stop-color="#133EB4"/>
<stop offset="1"/>
</linearGradient>
<linearGradient id="paint25_linear_145_309" x1="1734" y1="59.5" x2="1445" y2="308.5" gradientUnits="userSpaceOnUse">
<stop offset="0.289375" stop-color="#133EB4"/>
<stop offset="1"/>
</linearGradient>
<linearGradient id="paint26_linear_145_309" x1="1857.5" y1="59.5" x2="1568.5" y2="308.5" gradientUnits="userSpaceOnUse">
<stop offset="0.289375" stop-color="#133EB4"/>
<stop offset="1"/>
</linearGradient>
<linearGradient id="paint27_linear_145_309" x1="1857.5" y1="59.5" x2="1568.5" y2="308.5" gradientUnits="userSpaceOnUse">
<stop offset="0.289375" stop-color="#133EB4"/>
<stop offset="1"/>
</linearGradient>
<linearGradient id="paint28_linear_145_309" x1="1981" y1="59.5" x2="1692" y2="308.5" gradientUnits="userSpaceOnUse">
<stop offset="0.289375" stop-color="#133EB4"/>
<stop offset="1"/>
</linearGradient>
<linearGradient id="paint29_linear_145_309" x1="1981" y1="59.5" x2="1692" y2="308.5" gradientUnits="userSpaceOnUse">
<stop offset="0.289375" stop-color="#133EB4"/>
<stop offset="1"/>
</linearGradient>
<linearGradient id="paint30_linear_145_309" x1="2104.5" y1="59.5" x2="1815.5" y2="308.5" gradientUnits="userSpaceOnUse">
<stop offset="0.289375" stop-color="#133EB4"/>
<stop offset="1"/>
</linearGradient>
<linearGradient id="paint31_linear_145_309" x1="2104.5" y1="59.5" x2="1815.5" y2="308.5" gradientUnits="userSpaceOnUse">
<stop offset="0.289375" stop-color="#133EB4"/>
<stop offset="1"/>
</linearGradient>
<linearGradient id="paint32_linear_145_309" x1="2228" y1="59.5" x2="1939" y2="308.5" gradientUnits="userSpaceOnUse">
<stop offset="0.289375" stop-color="#133EB4"/>
<stop offset="1"/>
</linearGradient>
<linearGradient id="paint33_linear_145_309" x1="2228" y1="59.5" x2="1939" y2="308.5" gradientUnits="userSpaceOnUse">
<stop offset="0.289375" stop-color="#133EB4"/>
<stop offset="1"/>
</linearGradient>
<linearGradient id="paint34_linear_145_309" x1="2351.5" y1="59.5" x2="2062.5" y2="308.5" gradientUnits="userSpaceOnUse">
<stop offset="0.289375" stop-color="#133EB4"/>
<stop offset="1"/>
</linearGradient>
<linearGradient id="paint35_linear_145_309" x1="2351.5" y1="59.5" x2="2062.5" y2="308.5" gradientUnits="userSpaceOnUse">
<stop offset="0.289375" stop-color="#133EB4"/>
<stop offset="1"/>
</linearGradient>
<linearGradient id="paint36_linear_145_309" x1="2475" y1="59.5" x2="2186" y2="308.5" gradientUnits="userSpaceOnUse">
<stop offset="0.289375" stop-color="#133EB4"/>
<stop offset="1"/>
</linearGradient>
<linearGradient id="paint37_linear_145_309" x1="2475" y1="59.5" x2="2186" y2="308.5" gradientUnits="userSpaceOnUse">
<stop offset="0.289375" stop-color="#133EB4"/>
<stop offset="1"/>
</linearGradient>
<linearGradient id="paint38_linear_145_309" x1="2598.5" y1="59.5" x2="2309.5" y2="308.5" gradientUnits="userSpaceOnUse">
<stop offset="0.289375" stop-color="#133EB4"/>
<stop offset="1"/>
</linearGradient>
<linearGradient id="paint39_linear_145_309" x1="2598.5" y1="59.5" x2="2309.5" y2="308.5" gradientUnits="userSpaceOnUse">
<stop offset="0.289375" stop-color="#133EB4"/>
<stop offset="1"/>
</linearGradient>
<linearGradient id="paint40_linear_145_309" x1="2722" y1="59.5" x2="2433" y2="308.5" gradientUnits="userSpaceOnUse">
<stop offset="0.289375" stop-color="#133EB4"/>
<stop offset="1"/>
</linearGradient>
<linearGradient id="paint41_linear_145_309" x1="2722" y1="59.5" x2="2433" y2="308.5" gradientUnits="userSpaceOnUse">
<stop offset="0.289375" stop-color="#133EB4"/>
<stop offset="1"/>
</linearGradient>
<linearGradient id="paint42_linear_145_309" x1="2845.5" y1="59.5" x2="2556.5" y2="308.5" gradientUnits="userSpaceOnUse">
<stop offset="0.289375" stop-color="#133EB4"/>
<stop offset="1"/>
</linearGradient>
<linearGradient id="paint43_linear_145_309" x1="2845.5" y1="59.5" x2="2556.5" y2="308.5" gradientUnits="userSpaceOnUse">
<stop offset="0.289375" stop-color="#133EB4"/>
<stop offset="1"/>
</linearGradient>
<linearGradient id="paint44_linear_145_309" x1="2969" y1="59.5" x2="2680" y2="308.5" gradientUnits="userSpaceOnUse">
<stop offset="0.289375" stop-color="#133EB4"/>
<stop offset="1"/>
</linearGradient>
<linearGradient id="paint45_linear_145_309" x1="2969" y1="59.5" x2="2680" y2="308.5" gradientUnits="userSpaceOnUse">
<stop offset="0.289375" stop-color="#133EB4"/>
<stop offset="1"/>
</linearGradient>
</defs>
</svg>
