<svg width="250" height="350" viewBox="0 0 250 350" fill="none" xmlns="http://www.w3.org/2000/svg">
<path d="M0 0H250V350H0V0Z" fill="url(#paint0_linear_145_579)"/>
<path d="M34.832 39.728C34.832 39.92 34.932 40.06 35.132 40.148C35.332 40.228 35.696 40.296 36.224 40.352C36.832 40.416 37.328 40.6 37.712 40.904C38.096 41.2 38.288 41.616 38.288 42.152V42.224C38.288 42.816 38.072 43.288 37.64 43.64C37.208 43.992 36.6 44.168 35.816 44.168C35.352 44.168 34.956 44.108 34.628 43.988C34.3 43.868 34.028 43.72 33.812 43.544C33.596 43.36 33.428 43.16 33.308 42.944C33.196 42.72 33.12 42.504 33.08 42.296L34.472 41.84C34.536 42.096 34.668 42.32 34.868 42.512C35.076 42.704 35.392 42.8 35.816 42.8C36.192 42.8 36.448 42.744 36.584 42.632C36.728 42.512 36.8 42.384 36.8 42.248C36.8 42.168 36.78 42.096 36.74 42.032C36.708 41.96 36.644 41.896 36.548 41.84C36.452 41.776 36.32 41.724 36.152 41.684C35.992 41.644 35.788 41.612 35.54 41.588C34.868 41.532 34.332 41.36 33.932 41.072C33.54 40.776 33.344 40.344 33.344 39.776V39.704C33.344 39.408 33.408 39.148 33.536 38.924C33.664 38.7 33.832 38.512 34.04 38.36C34.248 38.2 34.488 38.08 34.76 38C35.032 37.92 35.312 37.88 35.6 37.88C35.976 37.88 36.3 37.928 36.572 38.024C36.852 38.112 37.088 38.232 37.28 38.384C37.472 38.528 37.628 38.692 37.748 38.876C37.868 39.052 37.96 39.224 38.024 39.392L36.656 39.944C36.584 39.728 36.46 39.56 36.284 39.44C36.108 39.312 35.88 39.248 35.6 39.248C35.344 39.248 35.152 39.296 35.024 39.392C34.896 39.48 34.832 39.592 34.832 39.728ZM40.1157 38.048H41.8797V35.6H43.3917V38.048H45.5397V39.488H43.3917V42.2C43.3917 42.44 43.4997 42.56 43.7157 42.56H45.3237V44H42.8037C42.5317 44 42.3077 43.912 42.1317 43.736C41.9637 43.56 41.8797 43.336 41.8797 43.064V39.488H40.1157V38.048ZM51.6633 38.048H53.1753V44H51.6633V43.136H51.4473C51.1833 43.824 50.6153 44.168 49.7433 44.168C49.4473 44.168 49.1713 44.12 48.9153 44.024C48.6593 43.928 48.4353 43.78 48.2433 43.58C48.0513 43.38 47.8993 43.132 47.7873 42.836C47.6833 42.532 47.6313 42.176 47.6313 41.768V38.048H49.1433V41.456C49.1433 41.88 49.2433 42.212 49.4433 42.452C49.6433 42.684 49.9433 42.8 50.3433 42.8C50.7993 42.8 51.1313 42.656 51.3393 42.368C51.5553 42.072 51.6633 41.672 51.6633 41.168V38.048ZM59.251 43.136H59.035C58.971 43.272 58.891 43.404 58.795 43.532C58.707 43.652 58.587 43.76 58.435 43.856C58.291 43.952 58.115 44.028 57.907 44.084C57.707 44.14 57.463 44.168 57.175 44.168C56.807 44.168 56.463 44.104 56.143 43.976C55.831 43.84 55.555 43.644 55.315 43.388C55.083 43.124 54.899 42.804 54.763 42.428C54.635 42.052 54.571 41.62 54.571 41.132V40.916C54.571 40.436 54.639 40.008 54.775 39.632C54.919 39.256 55.111 38.94 55.351 38.684C55.599 38.42 55.883 38.22 56.203 38.084C56.531 37.948 56.875 37.88 57.235 37.88C57.715 37.88 58.095 37.972 58.375 38.156C58.655 38.332 58.875 38.584 59.035 38.912H59.251V35.6H60.763V44H59.251V43.136ZM57.667 42.728C58.139 42.728 58.519 42.58 58.807 42.284C59.103 41.98 59.251 41.584 59.251 41.096V40.952C59.251 40.464 59.103 40.072 58.807 39.776C58.519 39.472 58.139 39.32 57.667 39.32C57.195 39.32 56.811 39.468 56.515 39.764C56.227 40.052 56.083 40.448 56.083 40.952V41.096C56.083 41.6 56.227 42 56.515 42.296C56.811 42.584 57.195 42.728 57.667 42.728ZM62.4346 42.56H64.4506V39.488H62.5786V38.048H65.9626V42.56H67.6906V44H62.4346V42.56ZM66.3346 36.284C66.3346 36.444 66.3026 36.596 66.2386 36.74C66.1826 36.876 66.1026 36.996 65.9986 37.1C65.8946 37.196 65.7706 37.276 65.6266 37.34C65.4906 37.396 65.3466 37.424 65.1946 37.424C65.0346 37.424 64.8866 37.396 64.7506 37.34C64.6146 37.276 64.4946 37.196 64.3906 37.1C64.2866 36.996 64.2026 36.876 64.1386 36.74C64.0826 36.596 64.0546 36.444 64.0546 36.284C64.0546 36.124 64.0826 35.976 64.1386 35.84C64.2026 35.696 64.2866 35.576 64.3906 35.48C64.4946 35.376 64.6146 35.296 64.7506 35.24C64.8866 35.176 65.0346 35.144 65.1946 35.144C65.3466 35.144 65.4906 35.176 65.6266 35.24C65.7706 35.296 65.8946 35.376 65.9986 35.48C66.1026 35.576 66.1826 35.696 66.2386 35.84C66.3026 35.976 66.3346 36.124 66.3346 36.284ZM75.5063 41.096C75.5063 41.592 75.4223 42.032 75.2543 42.416C75.0863 42.792 74.8583 43.112 74.5703 43.376C74.2823 43.632 73.9503 43.828 73.5743 43.964C73.2063 44.1 72.8183 44.168 72.4103 44.168C72.0023 44.168 71.6103 44.1 71.2343 43.964C70.8663 43.828 70.5383 43.632 70.2503 43.376C69.9623 43.112 69.7343 42.792 69.5663 42.416C69.3983 42.032 69.3143 41.592 69.3143 41.096V40.952C69.3143 40.464 69.3983 40.032 69.5663 39.656C69.7343 39.272 69.9623 38.948 70.2503 38.684C70.5383 38.42 70.8663 38.22 71.2343 38.084C71.6103 37.948 72.0023 37.88 72.4103 37.88C72.8183 37.88 73.2063 37.948 73.5743 38.084C73.9503 38.22 74.2823 38.42 74.5703 38.684C74.8583 38.948 75.0863 39.272 75.2543 39.656C75.4223 40.032 75.5063 40.464 75.5063 40.952V41.096ZM72.4103 42.728C72.6263 42.728 72.8303 42.692 73.0223 42.62C73.2143 42.548 73.3823 42.444 73.5263 42.308C73.6703 42.172 73.7823 42.008 73.8623 41.816C73.9503 41.616 73.9943 41.392 73.9943 41.144V40.904C73.9943 40.656 73.9503 40.436 73.8623 40.244C73.7823 40.044 73.6703 39.876 73.5263 39.74C73.3823 39.604 73.2143 39.5 73.0223 39.428C72.8303 39.356 72.6263 39.32 72.4103 39.32C72.1943 39.32 71.9903 39.356 71.7983 39.428C71.6063 39.5 71.4383 39.604 71.2943 39.74C71.1503 39.876 71.0343 40.044 70.9463 40.244C70.8663 40.436 70.8263 40.656 70.8263 40.904V41.144C70.8263 41.392 70.8663 41.616 70.9463 41.816C71.0343 42.008 71.1503 42.172 71.2943 42.308C71.4383 42.444 71.6063 42.548 71.7983 42.62C71.9903 42.692 72.1943 42.728 72.4103 42.728Z" fill="white"/>
<path d="M149.667 311.364H149.955L151.539 309.18H153.195V309.252L151.275 311.976V312.192L153.387 315.06V315.132H151.659L149.955 312.804H149.667V315.132H148.155V306.732H149.667V311.364ZM154.735 309.18H157.255V310.044H157.471C157.583 309.716 157.771 309.464 158.035 309.288C158.307 309.104 158.631 309.012 159.007 309.012C159.599 309.012 160.075 309.2 160.435 309.576C160.795 309.944 160.975 310.508 160.975 311.268V311.532L159.415 311.676V311.508C159.415 311.18 159.331 310.92 159.163 310.728C158.995 310.528 158.743 310.428 158.407 310.428C158.071 310.428 157.807 310.544 157.615 310.776C157.423 311.008 157.327 311.34 157.327 311.772V313.692H158.695V315.132H154.591V313.692H155.815V310.62H154.735V309.18ZM162.478 313.692H164.494V310.62H162.622V309.18H166.006V313.692H167.734V315.132H162.478V313.692ZM166.378 307.416C166.378 307.576 166.346 307.728 166.282 307.872C166.226 308.008 166.146 308.128 166.042 308.232C165.938 308.328 165.814 308.408 165.67 308.472C165.534 308.528 165.39 308.556 165.238 308.556C165.078 308.556 164.93 308.528 164.794 308.472C164.658 308.408 164.538 308.328 164.434 308.232C164.33 308.128 164.246 308.008 164.182 307.872C164.126 307.728 164.098 307.576 164.098 307.416C164.098 307.256 164.126 307.108 164.182 306.972C164.246 306.828 164.33 306.708 164.434 306.612C164.538 306.508 164.658 306.428 164.794 306.372C164.93 306.308 165.078 306.276 165.238 306.276C165.39 306.276 165.534 306.308 165.67 306.372C165.814 306.428 165.938 306.508 166.042 306.612C166.146 306.708 166.226 306.828 166.282 306.972C166.346 307.108 166.378 307.256 166.378 307.416ZM171.614 310.86C171.614 311.052 171.714 311.192 171.914 311.28C172.114 311.36 172.478 311.428 173.006 311.484C173.614 311.548 174.11 311.732 174.494 312.036C174.878 312.332 175.07 312.748 175.07 313.284V313.356C175.07 313.948 174.854 314.42 174.422 314.772C173.99 315.124 173.382 315.3 172.598 315.3C172.134 315.3 171.738 315.24 171.41 315.12C171.082 315 170.81 314.852 170.594 314.676C170.378 314.492 170.21 314.292 170.09 314.076C169.978 313.852 169.902 313.636 169.862 313.428L171.254 312.972C171.318 313.228 171.45 313.452 171.65 313.644C171.858 313.836 172.174 313.932 172.598 313.932C172.974 313.932 173.23 313.876 173.366 313.764C173.51 313.644 173.582 313.516 173.582 313.38C173.582 313.3 173.562 313.228 173.522 313.164C173.49 313.092 173.426 313.028 173.33 312.972C173.234 312.908 173.102 312.856 172.934 312.816C172.774 312.776 172.57 312.744 172.322 312.72C171.65 312.664 171.114 312.492 170.714 312.204C170.322 311.908 170.126 311.476 170.126 310.908V310.836C170.126 310.54 170.19 310.28 170.318 310.056C170.446 309.832 170.614 309.644 170.822 309.492C171.03 309.332 171.27 309.212 171.542 309.132C171.814 309.052 172.094 309.012 172.382 309.012C172.758 309.012 173.082 309.06 173.354 309.156C173.634 309.244 173.87 309.364 174.062 309.516C174.254 309.66 174.41 309.824 174.53 310.008C174.65 310.184 174.742 310.356 174.806 310.524L173.438 311.076C173.366 310.86 173.242 310.692 173.066 310.572C172.89 310.444 172.662 310.38 172.382 310.38C172.126 310.38 171.934 310.428 171.806 310.524C171.678 310.612 171.614 310.724 171.614 310.86ZM176.898 309.18H178.662V306.732H180.174V309.18H182.322V310.62H180.174V313.332C180.174 313.572 180.282 313.692 180.498 313.692H182.106V315.132H179.586C179.314 315.132 179.09 315.044 178.914 314.868C178.746 314.692 178.662 314.468 178.662 314.196V310.62H176.898V309.18ZM184.521 313.692H186.537V310.62H184.665V309.18H188.049V313.692H189.777V315.132H184.521V313.692ZM188.421 307.416C188.421 307.576 188.389 307.728 188.325 307.872C188.269 308.008 188.189 308.128 188.085 308.232C187.981 308.328 187.857 308.408 187.713 308.472C187.577 308.528 187.433 308.556 187.281 308.556C187.121 308.556 186.973 308.528 186.837 308.472C186.701 308.408 186.581 308.328 186.477 308.232C186.373 308.128 186.289 308.008 186.225 307.872C186.169 307.728 186.141 307.576 186.141 307.416C186.141 307.256 186.169 307.108 186.225 306.972C186.289 306.828 186.373 306.708 186.477 306.612C186.581 306.508 186.701 306.428 186.837 306.372C186.973 306.308 187.121 306.276 187.281 306.276C187.433 306.276 187.577 306.308 187.713 306.372C187.857 306.428 187.981 306.508 188.085 306.612C188.189 306.708 188.269 306.828 188.325 306.972C188.389 307.108 188.421 307.256 188.421 307.416ZM195.613 314.268C195.453 314.644 195.229 314.912 194.941 315.072C194.653 315.224 194.317 315.3 193.933 315.3C193.573 315.3 193.233 315.232 192.913 315.096C192.601 314.96 192.325 314.76 192.085 314.496C191.845 314.232 191.653 313.912 191.509 313.536C191.373 313.16 191.305 312.732 191.305 312.252V312.06C191.305 311.588 191.373 311.164 191.509 310.788C191.645 310.412 191.829 310.092 192.061 309.828C192.293 309.564 192.561 309.364 192.865 309.228C193.177 309.084 193.509 309.012 193.861 309.012C194.285 309.012 194.625 309.084 194.881 309.228C195.145 309.372 195.353 309.596 195.505 309.9H195.721V309.18H197.233V313.332C197.233 313.572 197.341 313.692 197.557 313.692H197.785V315.132H196.753C196.481 315.132 196.257 315.052 196.081 314.892C195.913 314.732 195.829 314.524 195.829 314.268H195.613ZM194.269 313.86C194.709 313.86 195.061 313.716 195.325 313.428C195.589 313.132 195.721 312.732 195.721 312.228V312.084C195.721 311.58 195.589 311.184 195.325 310.896C195.061 310.6 194.709 310.452 194.269 310.452C193.829 310.452 193.477 310.6 193.213 310.896C192.949 311.184 192.817 311.58 192.817 312.084V312.228C192.817 312.732 192.949 313.132 193.213 313.428C193.477 313.716 193.829 313.86 194.269 313.86ZM200.621 315.132H199.109V309.18H200.621V310.068H200.837C200.973 309.732 201.193 309.472 201.497 309.288C201.801 309.104 202.157 309.012 202.565 309.012C202.853 309.012 203.121 309.06 203.369 309.156C203.625 309.244 203.849 309.384 204.041 309.576C204.233 309.768 204.381 310.012 204.485 310.308C204.597 310.604 204.653 310.956 204.653 311.364V315.132H203.141V311.748C203.141 311.324 203.037 310.992 202.829 310.752C202.629 310.504 202.337 310.38 201.953 310.38C201.505 310.38 201.169 310.532 200.945 310.836C200.729 311.132 200.621 311.532 200.621 312.036V315.132Z" fill="white"/>
<path d="M114.698 166.016H151L139.226 174.508L151 183H99C99 183 114.698 181.113 114.698 177.339C114.698 173.564 99 174.036 99 169.79C99 165.544 114.698 166.016 114.698 166.016Z" fill="white"/>
<defs>
<linearGradient id="paint0_linear_145_579" x1="162.364" y1="7.26418" x2="47.7937" y2="287.602" gradientUnits="userSpaceOnUse">
<stop/>
<stop offset="1" stop-color="#133EB4"/>
</linearGradient>
</defs>
</svg>
