<svg width="250" height="350" viewBox="0 0 250 350" fill="none" xmlns="http://www.w3.org/2000/svg">
<path d="M0 0H250V350H0V0Z" fill="url(#paint0_linear_145_580)"/>
<path d="M191.698 300.016H228L216.226 308.508L228 317H176C176 317 191.698 315.113 191.698 311.339C191.698 307.564 176 308.036 176 303.79C176 299.544 191.698 300.016 191.698 300.016Z" fill="white"/>
<path d="M96.832 66.728C96.832 66.92 96.932 67.06 97.132 67.148C97.332 67.228 97.696 67.296 98.224 67.352C98.832 67.416 99.328 67.6 99.712 67.904C100.096 68.2 100.288 68.616 100.288 69.152V69.224C100.288 69.816 100.072 70.288 99.64 70.64C99.208 70.992 98.6 71.168 97.816 71.168C97.352 71.168 96.956 71.108 96.628 70.988C96.3 70.868 96.028 70.72 95.812 70.544C95.596 70.36 95.428 70.16 95.308 69.944C95.196 69.72 95.12 69.504 95.08 69.296L96.472 68.84C96.536 69.096 96.668 69.32 96.868 69.512C97.076 69.704 97.392 69.8 97.816 69.8C98.192 69.8 98.448 69.744 98.584 69.632C98.728 69.512 98.8 69.384 98.8 69.248C98.8 69.168 98.78 69.096 98.74 69.032C98.708 68.96 98.644 68.896 98.548 68.84C98.452 68.776 98.32 68.724 98.152 68.684C97.992 68.644 97.788 68.612 97.54 68.588C96.868 68.532 96.332 68.36 95.932 68.072C95.54 67.776 95.344 67.344 95.344 66.776V66.704C95.344 66.408 95.408 66.148 95.536 65.924C95.664 65.7 95.832 65.512 96.04 65.36C96.248 65.2 96.488 65.08 96.76 65C97.032 64.92 97.312 64.88 97.6 64.88C97.976 64.88 98.3 64.928 98.572 65.024C98.852 65.112 99.088 65.232 99.28 65.384C99.472 65.528 99.628 65.692 99.748 65.876C99.868 66.052 99.96 66.224 100.024 66.392L98.656 66.944C98.584 66.728 98.46 66.56 98.284 66.44C98.108 66.312 97.88 66.248 97.6 66.248C97.344 66.248 97.152 66.296 97.024 66.392C96.896 66.48 96.832 66.592 96.832 66.728ZM102.116 65.048H103.88V62.6H105.392V65.048H107.54V66.488H105.392V69.2C105.392 69.44 105.5 69.56 105.716 69.56H107.324V71H104.804C104.532 71 104.308 70.912 104.132 70.736C103.964 70.56 103.88 70.336 103.88 70.064V66.488H102.116V65.048ZM113.663 65.048H115.175V71H113.663V70.136H113.447C113.183 70.824 112.615 71.168 111.743 71.168C111.447 71.168 111.171 71.12 110.915 71.024C110.659 70.928 110.435 70.78 110.243 70.58C110.051 70.38 109.899 70.132 109.787 69.836C109.683 69.532 109.631 69.176 109.631 68.768V65.048H111.143V68.456C111.143 68.88 111.243 69.212 111.443 69.452C111.643 69.684 111.943 69.8 112.343 69.8C112.799 69.8 113.131 69.656 113.339 69.368C113.555 69.072 113.663 68.672 113.663 68.168V65.048ZM121.251 70.136H121.035C120.971 70.272 120.891 70.404 120.795 70.532C120.707 70.652 120.587 70.76 120.435 70.856C120.291 70.952 120.115 71.028 119.907 71.084C119.707 71.14 119.463 71.168 119.175 71.168C118.807 71.168 118.463 71.104 118.143 70.976C117.831 70.84 117.555 70.644 117.315 70.388C117.083 70.124 116.899 69.804 116.763 69.428C116.635 69.052 116.571 68.62 116.571 68.132V67.916C116.571 67.436 116.639 67.008 116.775 66.632C116.919 66.256 117.111 65.94 117.351 65.684C117.599 65.42 117.883 65.22 118.203 65.084C118.531 64.948 118.875 64.88 119.235 64.88C119.715 64.88 120.095 64.972 120.375 65.156C120.655 65.332 120.875 65.584 121.035 65.912H121.251V62.6H122.763V71H121.251V70.136ZM119.667 69.728C120.139 69.728 120.519 69.58 120.807 69.284C121.103 68.98 121.251 68.584 121.251 68.096V67.952C121.251 67.464 121.103 67.072 120.807 66.776C120.519 66.472 120.139 66.32 119.667 66.32C119.195 66.32 118.811 66.468 118.515 66.764C118.227 67.052 118.083 67.448 118.083 67.952V68.096C118.083 68.6 118.227 69 118.515 69.296C118.811 69.584 119.195 69.728 119.667 69.728ZM124.435 69.56H126.451V66.488H124.579V65.048H127.963V69.56H129.691V71H124.435V69.56ZM128.335 63.284C128.335 63.444 128.303 63.596 128.239 63.74C128.183 63.876 128.103 63.996 127.999 64.1C127.895 64.196 127.771 64.276 127.627 64.34C127.491 64.396 127.347 64.424 127.195 64.424C127.035 64.424 126.887 64.396 126.751 64.34C126.615 64.276 126.495 64.196 126.391 64.1C126.287 63.996 126.203 63.876 126.139 63.74C126.083 63.596 126.055 63.444 126.055 63.284C126.055 63.124 126.083 62.976 126.139 62.84C126.203 62.696 126.287 62.576 126.391 62.48C126.495 62.376 126.615 62.296 126.751 62.24C126.887 62.176 127.035 62.144 127.195 62.144C127.347 62.144 127.491 62.176 127.627 62.24C127.771 62.296 127.895 62.376 127.999 62.48C128.103 62.576 128.183 62.696 128.239 62.84C128.303 62.976 128.335 63.124 128.335 63.284ZM137.506 68.096C137.506 68.592 137.422 69.032 137.254 69.416C137.086 69.792 136.858 70.112 136.57 70.376C136.282 70.632 135.95 70.828 135.574 70.964C135.206 71.1 134.818 71.168 134.41 71.168C134.002 71.168 133.61 71.1 133.234 70.964C132.866 70.828 132.538 70.632 132.25 70.376C131.962 70.112 131.734 69.792 131.566 69.416C131.398 69.032 131.314 68.592 131.314 68.096V67.952C131.314 67.464 131.398 67.032 131.566 66.656C131.734 66.272 131.962 65.948 132.25 65.684C132.538 65.42 132.866 65.22 133.234 65.084C133.61 64.948 134.002 64.88 134.41 64.88C134.818 64.88 135.206 64.948 135.574 65.084C135.95 65.22 136.282 65.42 136.57 65.684C136.858 65.948 137.086 66.272 137.254 66.656C137.422 67.032 137.506 67.464 137.506 67.952V68.096ZM134.41 69.728C134.626 69.728 134.83 69.692 135.022 69.62C135.214 69.548 135.382 69.444 135.526 69.308C135.67 69.172 135.782 69.008 135.862 68.816C135.95 68.616 135.994 68.392 135.994 68.144V67.904C135.994 67.656 135.95 67.436 135.862 67.244C135.782 67.044 135.67 66.876 135.526 66.74C135.382 66.604 135.214 66.5 135.022 66.428C134.83 66.356 134.626 66.32 134.41 66.32C134.194 66.32 133.99 66.356 133.798 66.428C133.606 66.5 133.438 66.604 133.294 66.74C133.15 66.876 133.034 67.044 132.946 67.244C132.866 67.436 132.826 67.656 132.826 67.904V68.144C132.826 68.392 132.866 68.616 132.946 68.816C133.034 69.008 133.15 69.172 133.294 69.308C133.438 69.444 133.606 69.548 133.798 69.62C133.99 69.692 134.194 69.728 134.41 69.728ZM141.014 67.232H141.302L142.886 65.048H144.542V65.12L142.622 67.844V68.06L144.734 70.928V71H143.006L141.302 68.672H141.014V71H139.502V62.6H141.014V67.232ZM146.082 65.048H148.602V65.912H148.818C148.93 65.584 149.118 65.332 149.382 65.156C149.654 64.972 149.978 64.88 150.354 64.88C150.946 64.88 151.422 65.068 151.782 65.444C152.142 65.812 152.322 66.376 152.322 67.136V67.4L150.762 67.544V67.376C150.762 67.048 150.678 66.788 150.51 66.596C150.342 66.396 150.09 66.296 149.754 66.296C149.418 66.296 149.154 66.412 148.962 66.644C148.77 66.876 148.674 67.208 148.674 67.64V69.56H150.042V71H145.938V69.56H147.162V66.488H146.082V65.048ZM153.825 69.56H155.841V66.488H153.969V65.048H157.353V69.56H159.081V71H153.825V69.56ZM157.725 63.284C157.725 63.444 157.693 63.596 157.629 63.74C157.573 63.876 157.493 63.996 157.389 64.1C157.285 64.196 157.161 64.276 157.017 64.34C156.881 64.396 156.737 64.424 156.585 64.424C156.425 64.424 156.277 64.396 156.141 64.34C156.005 64.276 155.885 64.196 155.781 64.1C155.677 63.996 155.593 63.876 155.529 63.74C155.473 63.596 155.445 63.444 155.445 63.284C155.445 63.124 155.473 62.976 155.529 62.84C155.593 62.696 155.677 62.576 155.781 62.48C155.885 62.376 156.005 62.296 156.141 62.24C156.277 62.176 156.425 62.144 156.585 62.144C156.737 62.144 156.881 62.176 157.017 62.24C157.161 62.296 157.285 62.376 157.389 62.48C157.493 62.576 157.573 62.696 157.629 62.84C157.693 62.976 157.725 63.124 157.725 63.284ZM162.961 66.728C162.961 66.92 163.061 67.06 163.261 67.148C163.461 67.228 163.825 67.296 164.353 67.352C164.961 67.416 165.457 67.6 165.841 67.904C166.225 68.2 166.417 68.616 166.417 69.152V69.224C166.417 69.816 166.201 70.288 165.769 70.64C165.337 70.992 164.729 71.168 163.945 71.168C163.481 71.168 163.085 71.108 162.757 70.988C162.429 70.868 162.157 70.72 161.941 70.544C161.725 70.36 161.557 70.16 161.437 69.944C161.325 69.72 161.249 69.504 161.209 69.296L162.601 68.84C162.665 69.096 162.797 69.32 162.997 69.512C163.205 69.704 163.521 69.8 163.945 69.8C164.321 69.8 164.577 69.744 164.713 69.632C164.857 69.512 164.929 69.384 164.929 69.248C164.929 69.168 164.909 69.096 164.869 69.032C164.837 68.96 164.773 68.896 164.677 68.84C164.581 68.776 164.449 68.724 164.281 68.684C164.121 68.644 163.917 68.612 163.669 68.588C162.997 68.532 162.461 68.36 162.061 68.072C161.669 67.776 161.473 67.344 161.473 66.776V66.704C161.473 66.408 161.537 66.148 161.665 65.924C161.793 65.7 161.961 65.512 162.169 65.36C162.377 65.2 162.617 65.08 162.889 65C163.161 64.92 163.441 64.88 163.729 64.88C164.105 64.88 164.429 64.928 164.701 65.024C164.981 65.112 165.217 65.232 165.409 65.384C165.601 65.528 165.757 65.692 165.877 65.876C165.997 66.052 166.089 66.224 166.153 66.392L164.785 66.944C164.713 66.728 164.589 66.56 164.413 66.44C164.237 66.312 164.009 66.248 163.729 66.248C163.473 66.248 163.281 66.296 163.153 66.392C163.025 66.48 162.961 66.592 162.961 66.728ZM168.245 65.048H170.009V62.6H171.521V65.048H173.669V66.488H171.521V69.2C171.521 69.44 171.629 69.56 171.845 69.56H173.453V71H170.933C170.661 71 170.437 70.912 170.261 70.736C170.093 70.56 170.009 70.336 170.009 70.064V66.488H168.245V65.048ZM175.868 69.56H177.884V66.488H176.012V65.048H179.396V69.56H181.124V71H175.868V69.56ZM179.768 63.284C179.768 63.444 179.736 63.596 179.672 63.74C179.616 63.876 179.536 63.996 179.432 64.1C179.328 64.196 179.204 64.276 179.06 64.34C178.924 64.396 178.78 64.424 178.628 64.424C178.468 64.424 178.32 64.396 178.184 64.34C178.048 64.276 177.928 64.196 177.824 64.1C177.72 63.996 177.636 63.876 177.572 63.74C177.516 63.596 177.488 63.444 177.488 63.284C177.488 63.124 177.516 62.976 177.572 62.84C177.636 62.696 177.72 62.576 177.824 62.48C177.928 62.376 178.048 62.296 178.184 62.24C178.32 62.176 178.468 62.144 178.628 62.144C178.78 62.144 178.924 62.176 179.06 62.24C179.204 62.296 179.328 62.376 179.432 62.48C179.536 62.576 179.616 62.696 179.672 62.84C179.736 62.976 179.768 63.124 179.768 63.284ZM186.96 70.136C186.8 70.512 186.576 70.78 186.288 70.94C186 71.092 185.664 71.168 185.28 71.168C184.92 71.168 184.58 71.1 184.26 70.964C183.948 70.828 183.672 70.628 183.432 70.364C183.192 70.1 183 69.78 182.856 69.404C182.72 69.028 182.652 68.6 182.652 68.12V67.928C182.652 67.456 182.72 67.032 182.856 66.656C182.992 66.28 183.176 65.96 183.408 65.696C183.64 65.432 183.908 65.232 184.212 65.096C184.524 64.952 184.856 64.88 185.208 64.88C185.632 64.88 185.972 64.952 186.228 65.096C186.492 65.24 186.7 65.464 186.852 65.768H187.068V65.048H188.58V69.2C188.58 69.44 188.688 69.56 188.904 69.56H189.132V71H188.1C187.828 71 187.604 70.92 187.428 70.76C187.26 70.6 187.176 70.392 187.176 70.136H186.96ZM185.616 69.728C186.056 69.728 186.408 69.584 186.672 69.296C186.936 69 187.068 68.6 187.068 68.096V67.952C187.068 67.448 186.936 67.052 186.672 66.764C186.408 66.468 186.056 66.32 185.616 66.32C185.176 66.32 184.824 66.468 184.56 66.764C184.296 67.052 184.164 67.448 184.164 67.952V68.096C184.164 68.6 184.296 69 184.56 69.296C184.824 69.584 185.176 69.728 185.616 69.728ZM191.968 71H190.456V65.048H191.968V65.936H192.184C192.32 65.6 192.54 65.34 192.844 65.156C193.148 64.972 193.504 64.88 193.912 64.88C194.2 64.88 194.468 64.928 194.716 65.024C194.972 65.112 195.196 65.252 195.388 65.444C195.58 65.636 195.728 65.88 195.832 66.176C195.944 66.472 196 66.824 196 67.232V71H194.488V67.616C194.488 67.192 194.384 66.86 194.176 66.62C193.976 66.372 193.684 66.248 193.3 66.248C192.852 66.248 192.516 66.4 192.292 66.704C192.076 67 191.968 67.4 191.968 67.904V71ZM201.679 70.028C201.679 70.188 201.647 70.34 201.583 70.484C201.527 70.62 201.447 70.74 201.343 70.844C201.239 70.94 201.115 71.016 200.971 71.072C200.835 71.136 200.691 71.168 200.539 71.168C200.379 71.168 200.231 71.136 200.095 71.072C199.959 71.016 199.839 70.94 199.735 70.844C199.631 70.74 199.547 70.62 199.483 70.484C199.427 70.34 199.399 70.188 199.399 70.028C199.399 69.868 199.427 69.72 199.483 69.584C199.547 69.44 199.631 69.32 199.735 69.224C199.839 69.12 199.959 69.04 200.095 68.984C200.231 68.92 200.379 68.888 200.539 68.888C200.691 68.888 200.835 68.92 200.971 68.984C201.115 69.04 201.239 69.12 201.343 69.224C201.447 69.32 201.527 69.44 201.583 69.584C201.647 69.72 201.679 69.868 201.679 70.028ZM210.959 68.816C210.823 69.52 210.499 70.088 209.987 70.52C209.483 70.952 208.807 71.168 207.959 71.168C207.519 71.168 207.107 71.1 206.723 70.964C206.347 70.828 206.019 70.632 205.739 70.376C205.459 70.12 205.239 69.804 205.079 69.428C204.919 69.052 204.839 68.624 204.839 68.144V68C204.839 67.52 204.919 67.088 205.079 66.704C205.239 66.32 205.459 65.992 205.739 65.72C206.027 65.448 206.359 65.24 206.735 65.096C207.119 64.952 207.527 64.88 207.959 64.88C208.791 64.88 209.463 65.096 209.975 65.528C210.495 65.96 210.823 66.528 210.959 67.232L209.471 67.616C209.423 67.264 209.271 66.96 209.015 66.704C208.759 66.448 208.399 66.32 207.935 66.32C207.719 66.32 207.515 66.36 207.323 66.44C207.131 66.52 206.963 66.636 206.819 66.788C206.675 66.932 206.559 67.112 206.471 67.328C206.391 67.536 206.351 67.772 206.351 68.036V68.108C206.351 68.372 206.391 68.608 206.471 68.816C206.559 69.016 206.675 69.184 206.819 69.32C206.963 69.456 207.131 69.56 207.323 69.632C207.515 69.696 207.719 69.728 207.935 69.728C208.399 69.728 208.751 69.612 208.991 69.38C209.239 69.148 209.399 68.836 209.471 68.444L210.959 68.816ZM218.331 68.096C218.331 68.592 218.247 69.032 218.079 69.416C217.911 69.792 217.683 70.112 217.395 70.376C217.107 70.632 216.775 70.828 216.399 70.964C216.031 71.1 215.643 71.168 215.235 71.168C214.827 71.168 214.435 71.1 214.059 70.964C213.691 70.828 213.363 70.632 213.075 70.376C212.787 70.112 212.559 69.792 212.391 69.416C212.223 69.032 212.139 68.592 212.139 68.096V67.952C212.139 67.464 212.223 67.032 212.391 66.656C212.559 66.272 212.787 65.948 213.075 65.684C213.363 65.42 213.691 65.22 214.059 65.084C214.435 64.948 214.827 64.88 215.235 64.88C215.643 64.88 216.031 64.948 216.399 65.084C216.775 65.22 217.107 65.42 217.395 65.684C217.683 65.948 217.911 66.272 218.079 66.656C218.247 67.032 218.331 67.464 218.331 67.952V68.096ZM215.235 69.728C215.451 69.728 215.655 69.692 215.847 69.62C216.039 69.548 216.207 69.444 216.351 69.308C216.495 69.172 216.607 69.008 216.687 68.816C216.775 68.616 216.819 68.392 216.819 68.144V67.904C216.819 67.656 216.775 67.436 216.687 67.244C216.607 67.044 216.495 66.876 216.351 66.74C216.207 66.604 216.039 66.5 215.847 66.428C215.655 66.356 215.451 66.32 215.235 66.32C215.019 66.32 214.815 66.356 214.623 66.428C214.431 66.5 214.263 66.604 214.119 66.74C213.975 66.876 213.859 67.044 213.771 67.244C213.691 67.436 213.651 67.656 213.651 67.904V68.144C213.651 68.392 213.691 68.616 213.771 68.816C213.859 69.008 213.975 69.172 214.119 69.308C214.263 69.444 214.431 69.548 214.623 69.62C214.815 69.692 215.019 69.728 215.235 69.728ZM225.822 71H224.31V66.824C224.31 66.656 224.266 66.532 224.178 66.452C224.098 66.364 223.99 66.32 223.854 66.32C223.694 66.32 223.566 66.368 223.47 66.464C223.382 66.56 223.338 66.704 223.338 66.896V71H221.826V66.824C221.826 66.656 221.778 66.532 221.682 66.452C221.594 66.364 221.486 66.32 221.358 66.32C221.214 66.32 221.094 66.368 220.998 66.464C220.902 66.56 220.854 66.704 220.854 66.896V71H219.342V65.048H220.854V65.624H221.07C221.118 65.408 221.226 65.232 221.394 65.096C221.57 64.952 221.798 64.88 222.078 64.88C222.342 64.88 222.566 64.952 222.75 65.096C222.934 65.232 223.058 65.408 223.122 65.624H223.338C223.402 65.408 223.534 65.232 223.734 65.096C223.942 64.952 224.198 64.88 224.502 64.88C224.902 64.88 225.222 65.016 225.462 65.288C225.702 65.552 225.822 65.92 225.822 66.392V71Z" fill="white"/>
<path d="M59.044 42.56H61.06V39.488H59.188V38.048H62.572V42.56H64.3V44H59.044V42.56ZM62.944 36.284C62.944 36.444 62.912 36.596 62.848 36.74C62.792 36.876 62.712 36.996 62.608 37.1C62.504 37.196 62.38 37.276 62.236 37.34C62.1 37.396 61.956 37.424 61.804 37.424C61.644 37.424 61.496 37.396 61.36 37.34C61.224 37.276 61.104 37.196 61 37.1C60.896 36.996 60.812 36.876 60.748 36.74C60.692 36.596 60.664 36.444 60.664 36.284C60.664 36.124 60.692 35.976 60.748 35.84C60.812 35.696 60.896 35.576 61 35.48C61.104 35.376 61.224 35.296 61.36 35.24C61.496 35.176 61.644 35.144 61.804 35.144C61.956 35.144 62.1 35.176 62.236 35.24C62.38 35.296 62.504 35.376 62.608 35.48C62.712 35.576 62.792 35.696 62.848 35.84C62.912 35.976 62.944 36.124 62.944 36.284ZM67.7957 44H66.2837V38.048H67.7957V38.936H68.0117C68.1477 38.6 68.3677 38.34 68.6717 38.156C68.9757 37.972 69.3317 37.88 69.7397 37.88C70.0277 37.88 70.2957 37.928 70.5437 38.024C70.7997 38.112 71.0237 38.252 71.2157 38.444C71.4077 38.636 71.5557 38.88 71.6597 39.176C71.7717 39.472 71.8277 39.824 71.8277 40.232V44H70.3157V40.616C70.3157 40.192 70.2117 39.86 70.0037 39.62C69.8037 39.372 69.5117 39.248 69.1277 39.248C68.6797 39.248 68.3437 39.4 68.1197 39.704C67.9037 40 67.7957 40.4 67.7957 40.904V44ZM73.5833 38.048H75.2753V36.824C75.2753 36.48 75.3913 36.192 75.6233 35.96C75.8553 35.72 76.1433 35.6 76.4873 35.6H78.9113V37.04H77.1113C76.8953 37.04 76.7873 37.16 76.7873 37.4V38.048H79.1273V39.488H76.7873V44H75.2753V39.488H73.5833V38.048ZM86.811 41.096C86.811 41.592 86.727 42.032 86.559 42.416C86.391 42.792 86.163 43.112 85.875 43.376C85.587 43.632 85.255 43.828 84.879 43.964C84.511 44.1 84.123 44.168 83.715 44.168C83.307 44.168 82.915 44.1 82.539 43.964C82.171 43.828 81.843 43.632 81.555 43.376C81.267 43.112 81.039 42.792 80.871 42.416C80.703 42.032 80.619 41.592 80.619 41.096V40.952C80.619 40.464 80.703 40.032 80.871 39.656C81.039 39.272 81.267 38.948 81.555 38.684C81.843 38.42 82.171 38.22 82.539 38.084C82.915 37.948 83.307 37.88 83.715 37.88C84.123 37.88 84.511 37.948 84.879 38.084C85.255 38.22 85.587 38.42 85.875 38.684C86.163 38.948 86.391 39.272 86.559 39.656C86.727 40.032 86.811 40.464 86.811 40.952V41.096ZM83.715 42.728C83.931 42.728 84.135 42.692 84.327 42.62C84.519 42.548 84.687 42.444 84.831 42.308C84.975 42.172 85.087 42.008 85.167 41.816C85.255 41.616 85.299 41.392 85.299 41.144V40.904C85.299 40.656 85.255 40.436 85.167 40.244C85.087 40.044 84.975 39.876 84.831 39.74C84.687 39.604 84.519 39.5 84.327 39.428C84.135 39.356 83.931 39.32 83.715 39.32C83.499 39.32 83.295 39.356 83.103 39.428C82.911 39.5 82.743 39.604 82.599 39.74C82.455 39.876 82.339 40.044 82.251 40.244C82.171 40.436 82.131 40.656 82.131 40.904V41.144C82.131 41.392 82.171 41.616 82.251 41.816C82.339 42.008 82.455 42.172 82.599 42.308C82.743 42.444 82.911 42.548 83.103 42.62C83.295 42.692 83.499 42.728 83.715 42.728ZM88.1106 37.88V36.44H91.8786C92.6626 36.44 93.2866 36.648 93.7506 37.064C94.2146 37.48 94.4466 38.104 94.4466 38.936V43.016C94.4466 43.352 94.3386 43.628 94.1226 43.844C93.9146 44.06 93.6426 44.168 93.3066 44.168H91.8306C91.5266 44.168 91.3026 44.104 91.1586 43.976C91.0226 43.84 90.9426 43.68 90.9186 43.496H90.7026C90.6306 43.68 90.4986 43.84 90.3066 43.976C90.1226 44.104 89.8546 44.168 89.5026 44.168C89.2226 44.168 88.9626 44.112 88.7226 44C88.4906 43.896 88.2866 43.736 88.1106 43.52C87.9426 43.296 87.8066 43.016 87.7026 42.68C87.6066 42.344 87.5586 41.948 87.5586 41.492V41.42C87.5586 40.964 87.6106 40.568 87.7146 40.232C87.8266 39.896 87.9706 39.62 88.1466 39.404C88.3306 39.18 88.5426 39.016 88.7826 38.912C89.0306 38.8 89.2946 38.744 89.5746 38.744C89.8786 38.744 90.1106 38.804 90.2706 38.924C90.4386 39.036 90.5586 39.176 90.6306 39.344H90.8466V38.912H92.2866V42.464C92.2866 42.688 92.3946 42.8 92.6106 42.8H92.6826C92.8986 42.8 93.0066 42.688 93.0066 42.464V39.32C93.0066 38.36 92.5266 37.88 91.5666 37.88H88.1106ZM89.9346 42.8C90.2626 42.8 90.4946 42.68 90.6306 42.44C90.7746 42.192 90.8466 41.876 90.8466 41.492V41.42C90.8466 41.036 90.7746 40.724 90.6306 40.484C90.4946 40.236 90.2626 40.112 89.9346 40.112C89.6306 40.112 89.3986 40.236 89.2386 40.484C89.0786 40.724 88.9986 41.036 88.9986 41.42V41.492C88.9986 41.876 89.0786 42.192 89.2386 42.44C89.3986 42.68 89.6306 42.8 89.9346 42.8ZM97.5703 39.728C97.5703 39.92 97.6703 40.06 97.8703 40.148C98.0703 40.228 98.4343 40.296 98.9623 40.352C99.5703 40.416 100.066 40.6 100.45 40.904C100.834 41.2 101.026 41.616 101.026 42.152V42.224C101.026 42.816 100.81 43.288 100.378 43.64C99.9463 43.992 99.3383 44.168 98.5543 44.168C98.0903 44.168 97.6943 44.108 97.3663 43.988C97.0383 43.868 96.7663 43.72 96.5503 43.544C96.3343 43.36 96.1663 43.16 96.0463 42.944C95.9343 42.72 95.8583 42.504 95.8183 42.296L97.2103 41.84C97.2743 42.096 97.4063 42.32 97.6063 42.512C97.8143 42.704 98.1303 42.8 98.5543 42.8C98.9303 42.8 99.1863 42.744 99.3223 42.632C99.4663 42.512 99.5383 42.384 99.5383 42.248C99.5383 42.168 99.5183 42.096 99.4783 42.032C99.4463 41.96 99.3823 41.896 99.2863 41.84C99.1903 41.776 99.0583 41.724 98.8903 41.684C98.7303 41.644 98.5263 41.612 98.2783 41.588C97.6063 41.532 97.0703 41.36 96.6703 41.072C96.2783 40.776 96.0823 40.344 96.0823 39.776V39.704C96.0823 39.408 96.1463 39.148 96.2743 38.924C96.4023 38.7 96.5703 38.512 96.7783 38.36C96.9863 38.2 97.2263 38.08 97.4983 38C97.7703 37.92 98.0503 37.88 98.3383 37.88C98.7143 37.88 99.0383 37.928 99.3103 38.024C99.5903 38.112 99.8263 38.232 100.018 38.384C100.21 38.528 100.366 38.692 100.486 38.876C100.606 39.052 100.698 39.224 100.762 39.392L99.3943 39.944C99.3223 39.728 99.1983 39.56 99.0223 39.44C98.8463 39.312 98.6183 39.248 98.3383 39.248C98.0823 39.248 97.8903 39.296 97.7623 39.392C97.6343 39.48 97.5703 39.592 97.5703 39.728ZM102.854 38.048H104.618V35.6H106.13V38.048H108.278V39.488H106.13V42.2C106.13 42.44 106.238 42.56 106.454 42.56H108.062V44H105.542C105.27 44 105.046 43.912 104.87 43.736C104.702 43.56 104.618 43.336 104.618 43.064V39.488H102.854V38.048ZM114.402 38.048H115.914V44H114.402V43.136H114.186C113.922 43.824 113.354 44.168 112.482 44.168C112.186 44.168 111.91 44.12 111.654 44.024C111.398 43.928 111.174 43.78 110.982 43.58C110.79 43.38 110.638 43.132 110.526 42.836C110.422 42.532 110.37 42.176 110.37 41.768V38.048H111.882V41.456C111.882 41.88 111.982 42.212 112.182 42.452C112.382 42.684 112.682 42.8 113.082 42.8C113.538 42.8 113.87 42.656 114.078 42.368C114.294 42.072 114.402 41.672 114.402 41.168V38.048ZM121.989 43.136H121.773C121.709 43.272 121.629 43.404 121.533 43.532C121.445 43.652 121.325 43.76 121.173 43.856C121.029 43.952 120.853 44.028 120.645 44.084C120.445 44.14 120.201 44.168 119.913 44.168C119.545 44.168 119.201 44.104 118.881 43.976C118.569 43.84 118.293 43.644 118.053 43.388C117.821 43.124 117.637 42.804 117.501 42.428C117.373 42.052 117.309 41.62 117.309 41.132V40.916C117.309 40.436 117.377 40.008 117.513 39.632C117.657 39.256 117.849 38.94 118.089 38.684C118.337 38.42 118.621 38.22 118.941 38.084C119.269 37.948 119.613 37.88 119.973 37.88C120.453 37.88 120.833 37.972 121.113 38.156C121.393 38.332 121.613 38.584 121.773 38.912H121.989V35.6H123.501V44H121.989V43.136ZM120.405 42.728C120.877 42.728 121.257 42.58 121.545 42.284C121.841 41.98 121.989 41.584 121.989 41.096V40.952C121.989 40.464 121.841 40.072 121.545 39.776C121.257 39.472 120.877 39.32 120.405 39.32C119.933 39.32 119.549 39.468 119.253 39.764C118.965 40.052 118.821 40.448 118.821 40.952V41.096C118.821 41.6 118.965 42 119.253 42.296C119.549 42.584 119.933 42.728 120.405 42.728ZM125.173 42.56H127.189V39.488H125.317V38.048H128.701V42.56H130.429V44H125.173V42.56ZM129.073 36.284C129.073 36.444 129.041 36.596 128.977 36.74C128.921 36.876 128.841 36.996 128.737 37.1C128.633 37.196 128.509 37.276 128.365 37.34C128.229 37.396 128.085 37.424 127.933 37.424C127.773 37.424 127.625 37.396 127.489 37.34C127.353 37.276 127.233 37.196 127.129 37.1C127.025 36.996 126.941 36.876 126.877 36.74C126.821 36.596 126.793 36.444 126.793 36.284C126.793 36.124 126.821 35.976 126.877 35.84C126.941 35.696 127.025 35.576 127.129 35.48C127.233 35.376 127.353 35.296 127.489 35.24C127.625 35.176 127.773 35.144 127.933 35.144C128.085 35.144 128.229 35.176 128.365 35.24C128.509 35.296 128.633 35.376 128.737 35.48C128.841 35.576 128.921 35.696 128.977 35.84C129.041 35.976 129.073 36.124 129.073 36.284ZM138.245 41.096C138.245 41.592 138.161 42.032 137.993 42.416C137.825 42.792 137.597 43.112 137.309 43.376C137.021 43.632 136.689 43.828 136.313 43.964C135.945 44.1 135.557 44.168 135.149 44.168C134.741 44.168 134.349 44.1 133.973 43.964C133.605 43.828 133.277 43.632 132.989 43.376C132.701 43.112 132.473 42.792 132.305 42.416C132.137 42.032 132.053 41.592 132.053 41.096V40.952C132.053 40.464 132.137 40.032 132.305 39.656C132.473 39.272 132.701 38.948 132.989 38.684C133.277 38.42 133.605 38.22 133.973 38.084C134.349 37.948 134.741 37.88 135.149 37.88C135.557 37.88 135.945 37.948 136.313 38.084C136.689 38.22 137.021 38.42 137.309 38.684C137.597 38.948 137.825 39.272 137.993 39.656C138.161 40.032 138.245 40.464 138.245 40.952V41.096ZM135.149 42.728C135.365 42.728 135.569 42.692 135.761 42.62C135.953 42.548 136.121 42.444 136.265 42.308C136.409 42.172 136.521 42.008 136.601 41.816C136.689 41.616 136.733 41.392 136.733 41.144V40.904C136.733 40.656 136.689 40.436 136.601 40.244C136.521 40.044 136.409 39.876 136.265 39.74C136.121 39.604 135.953 39.5 135.761 39.428C135.569 39.356 135.365 39.32 135.149 39.32C134.933 39.32 134.729 39.356 134.537 39.428C134.345 39.5 134.177 39.604 134.033 39.74C133.889 39.876 133.773 40.044 133.685 40.244C133.605 40.436 133.565 40.656 133.565 40.904V41.144C133.565 41.392 133.605 41.616 133.685 41.816C133.773 42.008 133.889 42.172 134.033 42.308C134.177 42.444 134.345 42.548 134.537 42.62C134.729 42.692 134.933 42.728 135.149 42.728ZM141.752 40.232H142.04L143.624 38.048H145.28V38.12L143.36 40.844V41.06L145.472 43.928V44H143.744L142.04 41.672H141.752V44H140.24V35.6H141.752V40.232ZM146.82 38.048H149.34V38.912H149.556C149.668 38.584 149.856 38.332 150.12 38.156C150.392 37.972 150.716 37.88 151.092 37.88C151.684 37.88 152.16 38.068 152.52 38.444C152.88 38.812 153.06 39.376 153.06 40.136V40.4L151.5 40.544V40.376C151.5 40.048 151.416 39.788 151.248 39.596C151.08 39.396 150.828 39.296 150.492 39.296C150.156 39.296 149.892 39.412 149.7 39.644C149.508 39.876 149.412 40.208 149.412 40.64V42.56H150.78V44H146.676V42.56H147.9V39.488H146.82V38.048ZM154.564 42.56H156.58V39.488H154.708V38.048H158.092V42.56H159.82V44H154.564V42.56ZM158.464 36.284C158.464 36.444 158.432 36.596 158.368 36.74C158.312 36.876 158.232 36.996 158.128 37.1C158.024 37.196 157.9 37.276 157.756 37.34C157.62 37.396 157.476 37.424 157.324 37.424C157.164 37.424 157.016 37.396 156.88 37.34C156.744 37.276 156.624 37.196 156.52 37.1C156.416 36.996 156.332 36.876 156.268 36.74C156.212 36.596 156.184 36.444 156.184 36.284C156.184 36.124 156.212 35.976 156.268 35.84C156.332 35.696 156.416 35.576 156.52 35.48C156.624 35.376 156.744 35.296 156.88 35.24C157.016 35.176 157.164 35.144 157.324 35.144C157.476 35.144 157.62 35.176 157.756 35.24C157.9 35.296 158.024 35.376 158.128 35.48C158.232 35.576 158.312 35.696 158.368 35.84C158.432 35.976 158.464 36.124 158.464 36.284ZM163.699 39.728C163.699 39.92 163.799 40.06 163.999 40.148C164.199 40.228 164.563 40.296 165.091 40.352C165.699 40.416 166.195 40.6 166.579 40.904C166.963 41.2 167.155 41.616 167.155 42.152V42.224C167.155 42.816 166.939 43.288 166.507 43.64C166.075 43.992 165.467 44.168 164.683 44.168C164.219 44.168 163.823 44.108 163.495 43.988C163.167 43.868 162.895 43.72 162.679 43.544C162.463 43.36 162.295 43.16 162.175 42.944C162.063 42.72 161.987 42.504 161.947 42.296L163.339 41.84C163.403 42.096 163.535 42.32 163.735 42.512C163.943 42.704 164.259 42.8 164.683 42.8C165.059 42.8 165.315 42.744 165.451 42.632C165.595 42.512 165.667 42.384 165.667 42.248C165.667 42.168 165.647 42.096 165.607 42.032C165.575 41.96 165.511 41.896 165.415 41.84C165.319 41.776 165.187 41.724 165.019 41.684C164.859 41.644 164.655 41.612 164.407 41.588C163.735 41.532 163.199 41.36 162.799 41.072C162.407 40.776 162.211 40.344 162.211 39.776V39.704C162.211 39.408 162.275 39.148 162.403 38.924C162.531 38.7 162.699 38.512 162.907 38.36C163.115 38.2 163.355 38.08 163.627 38C163.899 37.92 164.179 37.88 164.467 37.88C164.843 37.88 165.167 37.928 165.439 38.024C165.719 38.112 165.955 38.232 166.147 38.384C166.339 38.528 166.495 38.692 166.615 38.876C166.735 39.052 166.827 39.224 166.891 39.392L165.523 39.944C165.451 39.728 165.327 39.56 165.151 39.44C164.975 39.312 164.747 39.248 164.467 39.248C164.211 39.248 164.019 39.296 163.891 39.392C163.763 39.48 163.699 39.592 163.699 39.728ZM168.983 38.048H170.747V35.6H172.259V38.048H174.407V39.488H172.259V42.2C172.259 42.44 172.367 42.56 172.583 42.56H174.191V44H171.671C171.399 44 171.175 43.912 170.999 43.736C170.831 43.56 170.747 43.336 170.747 43.064V39.488H168.983V38.048ZM176.607 42.56H178.623V39.488H176.751V38.048H180.135V42.56H181.863V44H176.607V42.56ZM180.507 36.284C180.507 36.444 180.475 36.596 180.411 36.74C180.355 36.876 180.275 36.996 180.171 37.1C180.067 37.196 179.943 37.276 179.799 37.34C179.663 37.396 179.519 37.424 179.367 37.424C179.207 37.424 179.059 37.396 178.923 37.34C178.787 37.276 178.667 37.196 178.562 37.1C178.459 36.996 178.375 36.876 178.311 36.74C178.255 36.596 178.227 36.444 178.227 36.284C178.227 36.124 178.255 35.976 178.311 35.84C178.375 35.696 178.459 35.576 178.562 35.48C178.667 35.376 178.787 35.296 178.923 35.24C179.059 35.176 179.207 35.144 179.367 35.144C179.519 35.144 179.663 35.176 179.799 35.24C179.943 35.296 180.067 35.376 180.171 35.48C180.275 35.576 180.355 35.696 180.411 35.84C180.475 35.976 180.507 36.124 180.507 36.284ZM187.698 43.136C187.538 43.512 187.314 43.78 187.026 43.94C186.738 44.092 186.402 44.168 186.018 44.168C185.658 44.168 185.318 44.1 184.998 43.964C184.686 43.828 184.41 43.628 184.17 43.364C183.93 43.1 183.738 42.78 183.594 42.404C183.458 42.028 183.39 41.6 183.39 41.12V40.928C183.39 40.456 183.458 40.032 183.594 39.656C183.73 39.28 183.914 38.96 184.146 38.696C184.378 38.432 184.646 38.232 184.95 38.096C185.262 37.952 185.594 37.88 185.946 37.88C186.37 37.88 186.71 37.952 186.966 38.096C187.23 38.24 187.438 38.464 187.59 38.768H187.806V38.048H189.318V42.2C189.318 42.44 189.426 42.56 189.642 42.56H189.87V44H188.838C188.566 44 188.342 43.92 188.166 43.76C187.998 43.6 187.914 43.392 187.914 43.136H187.698ZM186.354 42.728C186.794 42.728 187.146 42.584 187.41 42.296C187.674 42 187.806 41.6 187.806 41.096V40.952C187.806 40.448 187.674 40.052 187.41 39.764C187.146 39.468 186.794 39.32 186.354 39.32C185.914 39.32 185.562 39.468 185.298 39.764C185.034 40.052 184.902 40.448 184.902 40.952V41.096C184.902 41.6 185.034 42 185.298 42.296C185.562 42.584 185.914 42.728 186.354 42.728ZM192.706 44H191.194V38.048H192.706V38.936H192.922C193.058 38.6 193.278 38.34 193.582 38.156C193.886 37.972 194.242 37.88 194.65 37.88C194.938 37.88 195.206 37.928 195.454 38.024C195.71 38.112 195.934 38.252 196.126 38.444C196.318 38.636 196.466 38.88 196.57 39.176C196.682 39.472 196.738 39.824 196.738 40.232V44H195.226V40.616C195.226 40.192 195.122 39.86 194.914 39.62C194.714 39.372 194.422 39.248 194.038 39.248C193.59 39.248 193.254 39.4 193.03 39.704C192.814 40 192.706 40.4 192.706 40.904V44ZM202.417 43.028C202.417 43.188 202.385 43.34 202.321 43.484C202.265 43.62 202.185 43.74 202.081 43.844C201.977 43.94 201.853 44.016 201.709 44.072C201.573 44.136 201.429 44.168 201.277 44.168C201.117 44.168 200.969 44.136 200.833 44.072C200.697 44.016 200.577 43.94 200.473 43.844C200.369 43.74 200.285 43.62 200.221 43.484C200.165 43.34 200.137 43.188 200.137 43.028C200.137 42.868 200.165 42.72 200.221 42.584C200.285 42.44 200.369 42.32 200.473 42.224C200.577 42.12 200.697 42.04 200.833 41.984C200.969 41.92 201.117 41.888 201.277 41.888C201.429 41.888 201.573 41.92 201.709 41.984C201.853 42.04 201.977 42.12 202.081 42.224C202.185 42.32 202.265 42.44 202.321 42.584C202.385 42.72 202.417 42.868 202.417 43.028ZM211.697 41.816C211.561 42.52 211.237 43.088 210.725 43.52C210.221 43.952 209.545 44.168 208.697 44.168C208.257 44.168 207.845 44.1 207.461 43.964C207.085 43.828 206.757 43.632 206.477 43.376C206.197 43.12 205.977 42.804 205.817 42.428C205.657 42.052 205.577 41.624 205.577 41.144V41C205.577 40.52 205.657 40.088 205.817 39.704C205.977 39.32 206.197 38.992 206.477 38.72C206.765 38.448 207.097 38.24 207.473 38.096C207.857 37.952 208.265 37.88 208.697 37.88C209.529 37.88 210.201 38.096 210.713 38.528C211.233 38.96 211.561 39.528 211.697 40.232L210.209 40.616C210.161 40.264 210.009 39.96 209.753 39.704C209.497 39.448 209.137 39.32 208.673 39.32C208.457 39.32 208.253 39.36 208.061 39.44C207.869 39.52 207.701 39.636 207.557 39.788C207.413 39.932 207.297 40.112 207.209 40.328C207.129 40.536 207.089 40.772 207.089 41.036V41.108C207.089 41.372 207.129 41.608 207.209 41.816C207.297 42.016 207.413 42.184 207.557 42.32C207.701 42.456 207.869 42.56 208.061 42.632C208.253 42.696 208.457 42.728 208.673 42.728C209.137 42.728 209.489 42.612 209.729 42.38C209.977 42.148 210.137 41.836 210.209 41.444L211.697 41.816ZM219.069 41.096C219.069 41.592 218.985 42.032 218.817 42.416C218.649 42.792 218.421 43.112 218.133 43.376C217.845 43.632 217.513 43.828 217.137 43.964C216.769 44.1 216.381 44.168 215.973 44.168C215.565 44.168 215.173 44.1 214.797 43.964C214.429 43.828 214.101 43.632 213.813 43.376C213.525 43.112 213.297 42.792 213.129 42.416C212.961 42.032 212.877 41.592 212.877 41.096V40.952C212.877 40.464 212.961 40.032 213.129 39.656C213.297 39.272 213.525 38.948 213.813 38.684C214.101 38.42 214.429 38.22 214.797 38.084C215.173 37.948 215.565 37.88 215.973 37.88C216.381 37.88 216.769 37.948 217.137 38.084C217.513 38.22 217.845 38.42 218.133 38.684C218.421 38.948 218.649 39.272 218.817 39.656C218.985 40.032 219.069 40.464 219.069 40.952V41.096ZM215.973 42.728C216.189 42.728 216.393 42.692 216.585 42.62C216.777 42.548 216.945 42.444 217.089 42.308C217.233 42.172 217.345 42.008 217.425 41.816C217.513 41.616 217.557 41.392 217.557 41.144V40.904C217.557 40.656 217.513 40.436 217.425 40.244C217.345 40.044 217.233 39.876 217.089 39.74C216.945 39.604 216.777 39.5 216.585 39.428C216.393 39.356 216.189 39.32 215.973 39.32C215.757 39.32 215.553 39.356 215.361 39.428C215.169 39.5 215.001 39.604 214.857 39.74C214.713 39.876 214.597 40.044 214.509 40.244C214.429 40.436 214.389 40.656 214.389 40.904V41.144C214.389 41.392 214.429 41.616 214.509 41.816C214.597 42.008 214.713 42.172 214.857 42.308C215.001 42.444 215.169 42.548 215.361 42.62C215.553 42.692 215.757 42.728 215.973 42.728ZM226.56 44H225.048V39.824C225.048 39.656 225.004 39.532 224.916 39.452C224.836 39.364 224.728 39.32 224.592 39.32C224.432 39.32 224.304 39.368 224.208 39.464C224.12 39.56 224.076 39.704 224.076 39.896V44H222.564V39.824C222.564 39.656 222.516 39.532 222.42 39.452C222.332 39.364 222.224 39.32 222.096 39.32C221.952 39.32 221.832 39.368 221.736 39.464C221.64 39.56 221.592 39.704 221.592 39.896V44H220.08V38.048H221.592V38.624H221.808C221.856 38.408 221.964 38.232 222.132 38.096C222.308 37.952 222.536 37.88 222.816 37.88C223.08 37.88 223.304 37.952 223.488 38.096C223.672 38.232 223.796 38.408 223.86 38.624H224.076C224.14 38.408 224.272 38.232 224.472 38.096C224.68 37.952 224.936 37.88 225.24 37.88C225.64 37.88 225.96 38.016 226.2 38.288C226.44 38.552 226.56 38.92 226.56 39.392V44Z" fill="white"/>
<g clip-path="url(#clip0_145_580)">
<path d="M58.0303 247.151H55.2424V249.939H58.0303V247.151Z" fill="white"/>
<path d="M71.9696 247.151H69.1818V249.939H71.9696V247.151Z" fill="white"/>
<path d="M63.6061 249.939H60.8182V252.727H63.6061V249.939Z" fill="white"/>
<path d="M66.394 249.939H63.6061V252.727H66.394V249.939Z" fill="white"/>
<path d="M69.1818 249.939H66.3939V252.727H69.1818V249.939Z" fill="white"/>
<path d="M71.9696 249.939H69.1818V252.727H71.9696V249.939Z" fill="white"/>
<path d="M74.7576 249.939H71.9697V252.727H74.7576V249.939Z" fill="white"/>
<path d="M55.2425 252.727H52.4546V255.515H55.2425V252.727Z" fill="white"/>
<path d="M60.8182 252.727H58.0303V255.515H60.8182V252.727Z" fill="white"/>
<path d="M63.6061 252.727H60.8182V255.515H63.6061V252.727Z" fill="white"/>
<path d="M66.394 252.727H63.6061V255.515H66.394V252.727Z" fill="white"/>
<path d="M69.1818 252.727H66.3939V255.515H69.1818V252.727Z" fill="white"/>
<path d="M77.5454 252.727H74.7576V255.515H77.5454V252.727Z" fill="white"/>
<path d="M55.2425 255.515H52.4546V258.303H55.2425V255.515Z" fill="white"/>
<path d="M58.0303 255.515H55.2424V258.303H58.0303V255.515Z" fill="white"/>
<path d="M60.8182 255.515H58.0303V258.303H60.8182V255.515Z" fill="white"/>
<path d="M63.6061 255.515H60.8182V258.303H63.6061V255.515Z" fill="white"/>
<path d="M66.394 255.515H63.6061V258.303H66.394V255.515Z" fill="white"/>
<path d="M69.1818 255.515H66.3939V258.303H69.1818V255.515Z" fill="white"/>
<path d="M71.9696 255.515H69.1818V258.303H71.9696V255.515Z" fill="white"/>
<path d="M74.7576 255.515H71.9697V258.303H74.7576V255.515Z" fill="white"/>
<path d="M55.2425 258.303H52.4546V261.091H55.2425V258.303Z" fill="white"/>
<path d="M66.394 258.303H63.6061V261.091H66.394V258.303Z" fill="white"/>
<path d="M71.9696 258.303H69.1818V261.091H71.9696V258.303Z" fill="white"/>
<path d="M77.5454 258.303H74.7576V261.091H77.5454V258.303Z" fill="white"/>
<path d="M55.2425 261.091H52.4546V263.879H55.2425V261.091Z" fill="white"/>
<path d="M60.8182 261.091H58.0303V263.879H60.8182V261.091Z" fill="white"/>
<path d="M63.6061 261.091H60.8182V263.879H63.6061V261.091Z" fill="white"/>
<path d="M69.1818 261.091H66.3939V263.879H69.1818V261.091Z" fill="white"/>
<path d="M71.9696 261.091H69.1818V263.879H71.9696V261.091Z" fill="white"/>
<path d="M55.2425 263.879H52.4546V266.667H55.2425V263.879Z" fill="white"/>
<path d="M60.8182 263.879H58.0303V266.667H60.8182V263.879Z" fill="white"/>
<path d="M66.394 263.879H63.6061V266.667H66.394V263.879Z" fill="white"/>
<path d="M71.9696 263.879H69.1818V266.667H71.9696V263.879Z" fill="white"/>
<path d="M77.5454 263.879H74.7576V266.667H77.5454V263.879Z" fill="white"/>
<path d="M55.2425 266.667H52.4546V269.454H55.2425V266.667Z" fill="white"/>
<path d="M58.0303 266.667H55.2424V269.454H58.0303V266.667Z" fill="white"/>
<path d="M60.8182 266.667H58.0303V269.454H60.8182V266.667Z" fill="white"/>
<path d="M63.6061 266.667H60.8182V269.454H63.6061V266.667Z" fill="white"/>
<path d="M66.394 266.667H63.6061V269.454H66.394V266.667Z" fill="white"/>
<path d="M69.1818 266.667H66.3939V269.454H69.1818V266.667Z" fill="white"/>
<path d="M32.9394 269.455H30.1515V272.242H32.9394V269.455Z" fill="white"/>
<path d="M38.5152 269.455H35.7273V272.242H38.5152V269.455Z" fill="white"/>
<path d="M41.303 269.455H38.5151V272.242H41.303V269.455Z" fill="white"/>
<path d="M44.0909 269.455H41.303V272.242H44.0909V269.455Z" fill="white"/>
<path d="M46.8788 269.455H44.0909V272.242H46.8788V269.455Z" fill="white"/>
<path d="M49.6667 269.455H46.8788V272.242H49.6667V269.455Z" fill="white"/>
<path d="M60.8182 269.455H58.0303V272.242H60.8182V269.455Z" fill="white"/>
<path d="M63.6061 269.455H60.8182V272.242H63.6061V269.455Z" fill="white"/>
<path d="M66.394 269.455H63.6061V272.242H66.394V269.455Z" fill="white"/>
<path d="M71.9696 269.455H69.1818V272.242H71.9696V269.455Z" fill="white"/>
<path d="M74.7576 269.455H71.9697V272.242H74.7576V269.455Z" fill="white"/>
<path d="M83.1211 269.455H80.3333V272.242H83.1211V269.455Z" fill="white"/>
<path d="M85.909 269.455H83.1211V272.242H85.909V269.455Z" fill="white"/>
<path d="M88.6971 269.455H85.9092V272.242H88.6971V269.455Z" fill="white"/>
<path d="M91.4849 269.455H88.697V272.242H91.4849V269.455Z" fill="white"/>
<path d="M94.2727 269.455H91.4849V272.242H94.2727V269.455Z" fill="white"/>
<path d="M32.9394 272.242H30.1515V275.03H32.9394V272.242Z" fill="white"/>
<path d="M35.7273 272.242H32.9395V275.03H35.7273V272.242Z" fill="white"/>
<path d="M63.6061 272.242H60.8182V275.03H63.6061V272.242Z" fill="white"/>
<path d="M71.9696 272.242H69.1818V275.03H71.9696V272.242Z" fill="white"/>
<path d="M77.5454 272.242H74.7576V275.03H77.5454V272.242Z" fill="white"/>
<path d="M97.0606 272.242H94.2727V275.03H97.0606V272.242Z" fill="white"/>
<path d="M32.9394 275.03H30.1515V277.818H32.9394V275.03Z" fill="white"/>
<path d="M38.5152 275.03H35.7273V277.818H38.5152V275.03Z" fill="white"/>
<path d="M41.303 275.03H38.5151V277.818H41.303V275.03Z" fill="white"/>
<path d="M46.8788 275.03H44.0909V277.818H46.8788V275.03Z" fill="white"/>
<path d="M49.6667 275.03H46.8788V277.818H49.6667V275.03Z" fill="white"/>
<path d="M52.4545 275.03H49.6666V277.818H52.4545V275.03Z" fill="white"/>
<path d="M58.0303 275.03H55.2424V277.818H58.0303V275.03Z" fill="white"/>
<path d="M60.8182 275.03H58.0303V277.818H60.8182V275.03Z" fill="white"/>
<path d="M66.394 275.03H63.6061V277.818H66.394V275.03Z" fill="white"/>
<path d="M80.3333 275.03H77.5454V277.818H80.3333V275.03Z" fill="white"/>
<path d="M83.1211 275.03H80.3333V277.818H83.1211V275.03Z" fill="white"/>
<path d="M85.909 275.03H83.1211V277.818H85.909V275.03Z" fill="white"/>
<path d="M88.6971 275.03H85.9092V277.818H88.6971V275.03Z" fill="white"/>
<path d="M94.2727 275.03H91.4849V277.818H94.2727V275.03Z" fill="white"/>
<path d="M99.8484 275.03H97.0605V277.818H99.8484V275.03Z" fill="white"/>
<path d="M32.9394 277.818H30.1515V280.606H32.9394V277.818Z" fill="white"/>
<path d="M35.7273 277.818H32.9395V280.606H35.7273V277.818Z" fill="white"/>
<path d="M38.5152 277.818H35.7273V280.606H38.5152V277.818Z" fill="white"/>
<path d="M44.0909 277.818H41.303V280.606H44.0909V277.818Z" fill="white"/>
<path d="M55.2425 277.818H52.4546V280.606H55.2425V277.818Z" fill="white"/>
<path d="M60.8182 277.818H58.0303V280.606H60.8182V277.818Z" fill="white"/>
<path d="M63.6061 277.818H60.8182V280.606H63.6061V277.818Z" fill="white"/>
<path d="M77.5454 277.818H74.7576V280.606H77.5454V277.818Z" fill="white"/>
<path d="M85.909 277.818H83.1211V280.606H85.909V277.818Z" fill="white"/>
<path d="M97.0606 277.818H94.2727V280.606H97.0606V277.818Z" fill="white"/>
<path d="M32.9394 280.606H30.1515V283.394H32.9394V280.606Z" fill="white"/>
<path d="M38.5152 280.606H35.7273V283.394H38.5152V280.606Z" fill="white"/>
<path d="M44.0909 280.606H41.303V283.394H44.0909V280.606Z" fill="white"/>
<path d="M46.8788 280.606H44.0909V283.394H46.8788V280.606Z" fill="white"/>
<path d="M49.6667 280.606H46.8788V283.394H49.6667V280.606Z" fill="white"/>
<path d="M60.8182 280.606H58.0303V283.394H60.8182V280.606Z" fill="white"/>
<path d="M63.6061 280.606H60.8182V283.394H63.6061V280.606Z" fill="white"/>
<path d="M74.7576 280.606H71.9697V283.394H74.7576V280.606Z" fill="white"/>
<path d="M77.5454 280.606H74.7576V283.394H77.5454V280.606Z" fill="white"/>
<path d="M85.909 280.606H83.1211V283.394H85.909V280.606Z" fill="white"/>
<path d="M88.6971 280.606H85.9092V283.394H88.6971V280.606Z" fill="white"/>
<path d="M91.4849 280.606H88.697V283.394H91.4849V280.606Z" fill="white"/>
<path d="M97.0606 280.606H94.2727V283.394H97.0606V280.606Z" fill="white"/>
<path d="M99.8484 280.606H97.0605V283.394H99.8484V280.606Z" fill="white"/>
<path d="M32.9394 283.394H30.1515V286.182H32.9394V283.394Z" fill="white"/>
<path d="M35.7273 283.394H32.9395V286.182H35.7273V283.394Z" fill="white"/>
<path d="M38.5152 283.394H35.7273V286.182H38.5152V283.394Z" fill="white"/>
<path d="M46.8788 283.394H44.0909V286.182H46.8788V283.394Z" fill="white"/>
<path d="M52.4545 283.394H49.6666V286.182H52.4545V283.394Z" fill="white"/>
<path d="M58.0303 283.394H55.2424V286.182H58.0303V283.394Z" fill="white"/>
<path d="M60.8182 283.394H58.0303V286.182H60.8182V283.394Z" fill="white"/>
<path d="M66.394 283.394H63.6061V286.182H66.394V283.394Z" fill="white"/>
<path d="M69.1818 283.394H66.3939V286.182H69.1818V283.394Z" fill="white"/>
<path d="M74.7576 283.394H71.9697V286.182H74.7576V283.394Z" fill="white"/>
<path d="M80.3333 283.394H77.5454V286.182H80.3333V283.394Z" fill="white"/>
<path d="M83.1211 283.394H80.3333V286.182H83.1211V283.394Z" fill="white"/>
<path d="M88.6971 283.394H85.9092V286.182H88.6971V283.394Z" fill="white"/>
<path d="M32.9394 286.182H30.1515V288.97H32.9394V286.182Z" fill="white"/>
<path d="M41.303 286.182H38.5151V288.97H41.303V286.182Z" fill="white"/>
<path d="M44.0909 286.182H41.303V288.97H44.0909V286.182Z" fill="white"/>
<path d="M49.6667 286.182H46.8788V288.97H49.6667V286.182Z" fill="white"/>
<path d="M55.2425 286.182H52.4546V288.97H55.2425V286.182Z" fill="white"/>
<path d="M69.1818 286.182H66.3939V288.97H69.1818V286.182Z" fill="white"/>
<path d="M71.9696 286.182H69.1818V288.97H71.9696V286.182Z" fill="white"/>
<path d="M74.7576 286.182H71.9697V288.97H74.7576V286.182Z" fill="white"/>
<path d="M80.3333 286.182H77.5454V288.97H80.3333V286.182Z" fill="white"/>
<path d="M83.1211 286.182H80.3333V288.97H83.1211V286.182Z" fill="white"/>
<path d="M88.6971 286.182H85.9092V288.97H88.6971V286.182Z" fill="white"/>
<path d="M94.2727 286.182H91.4849V288.97H94.2727V286.182Z" fill="white"/>
<path d="M99.8484 286.182H97.0605V288.97H99.8484V286.182Z" fill="white"/>
<path d="M32.9394 288.97H30.1515V291.758H32.9394V288.97Z" fill="white"/>
<path d="M38.5152 288.97H35.7273V291.758H38.5152V288.97Z" fill="white"/>
<path d="M44.0909 288.97H41.303V291.758H44.0909V288.97Z" fill="white"/>
<path d="M52.4545 288.97H49.6666V291.758H52.4545V288.97Z" fill="white"/>
<path d="M55.2425 288.97H52.4546V291.758H55.2425V288.97Z" fill="white"/>
<path d="M60.8182 288.97H58.0303V291.758H60.8182V288.97Z" fill="white"/>
<path d="M66.394 288.97H63.6061V291.758H66.394V288.97Z" fill="white"/>
<path d="M69.1818 288.97H66.3939V291.758H69.1818V288.97Z" fill="white"/>
<path d="M77.5454 288.97H74.7576V291.758H77.5454V288.97Z" fill="white"/>
<path d="M80.3333 288.97H77.5454V291.758H80.3333V288.97Z" fill="white"/>
<path d="M85.909 288.97H83.1211V291.758H85.909V288.97Z" fill="white"/>
<path d="M97.0606 288.97H94.2727V291.758H97.0606V288.97Z" fill="white"/>
<path d="M99.8484 288.97H97.0605V291.758H99.8484V288.97Z" fill="white"/>
<path d="M32.9394 291.758H30.1515V294.546H32.9394V291.758Z" fill="white"/>
<path d="M41.303 291.758H38.5151V294.546H41.303V291.758Z" fill="white"/>
<path d="M46.8788 291.758H44.0909V294.546H46.8788V291.758Z" fill="white"/>
<path d="M49.6667 291.758H46.8788V294.546H49.6667V291.758Z" fill="white"/>
<path d="M60.8182 291.758H58.0303V294.546H60.8182V291.758Z" fill="white"/>
<path d="M66.394 291.758H63.6061V294.546H66.394V291.758Z" fill="white"/>
<path d="M71.9696 291.758H69.1818V294.546H71.9696V291.758Z" fill="white"/>
<path d="M74.7576 291.758H71.9697V294.546H74.7576V291.758Z" fill="white"/>
<path d="M77.5454 291.758H74.7576V294.546H77.5454V291.758Z" fill="white"/>
<path d="M80.3333 291.758H77.5454V294.546H80.3333V291.758Z" fill="white"/>
<path d="M83.1211 291.758H80.3333V294.546H83.1211V291.758Z" fill="white"/>
<path d="M85.909 291.758H83.1211V294.546H85.909V291.758Z" fill="white"/>
<path d="M88.6971 291.758H85.9092V294.546H88.6971V291.758Z" fill="white"/>
<path d="M99.8484 291.758H97.0605V294.546H99.8484V291.758Z" fill="white"/>
<path d="M55.2425 294.545H52.4546V297.333H55.2425V294.545Z" fill="white"/>
<path d="M60.8182 294.545H58.0303V297.333H60.8182V294.545Z" fill="white"/>
<path d="M77.5454 294.545H74.7576V297.333H77.5454V294.545Z" fill="white"/>
<path d="M88.6971 294.545H85.9092V297.333H88.6971V294.545Z" fill="white"/>
<path d="M99.8484 294.545H97.0605V297.333H99.8484V294.545Z" fill="white"/>
<path d="M58.0303 297.333H55.2424V300.121H58.0303V297.333Z" fill="white"/>
<path d="M60.8182 297.333H58.0303V300.121H60.8182V297.333Z" fill="white"/>
<path d="M63.6061 297.333H60.8182V300.121H63.6061V297.333Z" fill="white"/>
<path d="M66.394 297.333H63.6061V300.121H66.394V297.333Z" fill="white"/>
<path d="M74.7576 297.333H71.9697V300.121H74.7576V297.333Z" fill="white"/>
<path d="M77.5454 297.333H74.7576V300.121H77.5454V297.333Z" fill="white"/>
<path d="M83.1211 297.333H80.3333V300.121H83.1211V297.333Z" fill="white"/>
<path d="M88.6971 297.333H85.9092V300.121H88.6971V297.333Z" fill="white"/>
<path d="M91.4849 297.333H88.697V300.121H91.4849V297.333Z" fill="white"/>
<path d="M94.2727 297.333H91.4849V300.121H94.2727V297.333Z" fill="white"/>
<path d="M97.0606 297.333H94.2727V300.121H97.0606V297.333Z" fill="white"/>
<path d="M99.8484 297.333H97.0605V300.121H99.8484V297.333Z" fill="white"/>
<path d="M55.2425 300.121H52.4546V302.909H55.2425V300.121Z" fill="white"/>
<path d="M58.0303 300.121H55.2424V302.909H58.0303V300.121Z" fill="white"/>
<path d="M60.8182 300.121H58.0303V302.909H60.8182V300.121Z" fill="white"/>
<path d="M63.6061 300.121H60.8182V302.909H63.6061V300.121Z" fill="white"/>
<path d="M71.9696 300.121H69.1818V302.909H71.9696V300.121Z" fill="white"/>
<path d="M74.7576 300.121H71.9697V302.909H74.7576V300.121Z" fill="white"/>
<path d="M77.5454 300.121H74.7576V302.909H77.5454V300.121Z" fill="white"/>
<path d="M88.6971 300.121H85.9092V302.909H88.6971V300.121Z" fill="white"/>
<path d="M55.2425 302.909H52.4546V305.697H55.2425V302.909Z" fill="white"/>
<path d="M58.0303 302.909H55.2424V305.697H58.0303V302.909Z" fill="white"/>
<path d="M60.8182 302.909H58.0303V305.697H60.8182V302.909Z" fill="white"/>
<path d="M63.6061 302.909H60.8182V305.697H63.6061V302.909Z" fill="white"/>
<path d="M77.5454 302.909H74.7576V305.697H77.5454V302.909Z" fill="white"/>
<path d="M80.3333 302.909H77.5454V305.697H80.3333V302.909Z" fill="white"/>
<path d="M83.1211 302.909H80.3333V305.697H83.1211V302.909Z" fill="white"/>
<path d="M85.909 302.909H83.1211V305.697H85.909V302.909Z" fill="white"/>
<path d="M88.6971 302.909H85.9092V305.697H88.6971V302.909Z" fill="white"/>
<path d="M91.4849 302.909H88.697V305.697H91.4849V302.909Z" fill="white"/>
<path d="M55.2425 305.697H52.4546V308.485H55.2425V305.697Z" fill="white"/>
<path d="M66.394 305.697H63.6061V308.485H66.394V305.697Z" fill="white"/>
<path d="M69.1818 305.697H66.3939V308.485H69.1818V305.697Z" fill="white"/>
<path d="M71.9696 305.697H69.1818V308.485H71.9696V305.697Z" fill="white"/>
<path d="M74.7576 305.697H71.9697V308.485H74.7576V305.697Z" fill="white"/>
<path d="M77.5454 305.697H74.7576V308.485H77.5454V305.697Z" fill="white"/>
<path d="M83.1211 305.697H80.3333V308.485H83.1211V305.697Z" fill="white"/>
<path d="M85.909 305.697H83.1211V308.485H85.909V305.697Z" fill="white"/>
<path d="M88.6971 305.697H85.9092V308.485H88.6971V305.697Z" fill="white"/>
<path d="M97.0606 305.697H94.2727V308.485H97.0606V305.697Z" fill="white"/>
<path d="M99.8484 305.697H97.0605V308.485H99.8484V305.697Z" fill="white"/>
<path d="M55.2425 308.485H52.4546V311.273H55.2425V308.485Z" fill="white"/>
<path d="M69.1818 308.485H66.3939V311.273H69.1818V308.485Z" fill="white"/>
<path d="M71.9696 308.485H69.1818V311.273H71.9696V308.485Z" fill="white"/>
<path d="M80.3333 308.485H77.5454V311.273H80.3333V308.485Z" fill="white"/>
<path d="M85.909 308.485H83.1211V311.273H85.909V308.485Z" fill="white"/>
<path d="M88.6971 308.485H85.9092V311.273H88.6971V308.485Z" fill="white"/>
<path d="M91.4849 308.485H88.697V311.273H91.4849V308.485Z" fill="white"/>
<path d="M94.2727 308.485H91.4849V311.273H94.2727V308.485Z" fill="white"/>
<path d="M99.8484 308.485H97.0605V311.273H99.8484V308.485Z" fill="white"/>
<path d="M60.8182 311.273H58.0303V314.061H60.8182V311.273Z" fill="white"/>
<path d="M66.394 311.273H63.6061V314.061H66.394V311.273Z" fill="white"/>
<path d="M69.1818 311.273H66.3939V314.061H69.1818V311.273Z" fill="white"/>
<path d="M74.7576 311.273H71.9697V314.061H74.7576V311.273Z" fill="white"/>
<path d="M80.3333 311.273H77.5454V314.061H80.3333V311.273Z" fill="white"/>
<path d="M83.1211 311.273H80.3333V314.061H83.1211V311.273Z" fill="white"/>
<path d="M88.6971 311.273H85.9092V314.061H88.6971V311.273Z" fill="white"/>
<path d="M91.4849 311.273H88.697V314.061H91.4849V311.273Z" fill="white"/>
<path d="M94.2727 311.273H91.4849V314.061H94.2727V311.273Z" fill="white"/>
<path d="M97.0606 311.273H94.2727V314.061H97.0606V311.273Z" fill="white"/>
<path d="M55.2425 314.061H52.4546V316.848H55.2425V314.061Z" fill="white"/>
<path d="M66.394 314.061H63.6061V316.848H66.394V314.061Z" fill="white"/>
<path d="M71.9696 314.061H69.1818V316.848H71.9696V314.061Z" fill="white"/>
<path d="M80.3333 314.061H77.5454V316.848H80.3333V314.061Z" fill="white"/>
<path d="M85.909 314.061H83.1211V316.848H85.909V314.061Z" fill="white"/>
<path d="M97.0606 314.061H94.2727V316.848H97.0606V314.061Z" fill="white"/>
<path d="M99.8484 314.061H97.0605V316.848H99.8484V314.061Z" fill="white"/>
<path fill-rule="evenodd" clip-rule="evenodd" d="M30.1515 247.151H49.6666V266.667H30.1515V247.151ZM32.9394 249.939H46.8788V263.879H32.9394V249.939Z" fill="white"/>
<path fill-rule="evenodd" clip-rule="evenodd" d="M80.3333 247.151H99.8484V266.667H80.3333V247.151ZM83.1211 249.939H97.0605V263.879H83.1211V249.939Z" fill="white"/>
<path d="M44.0909 252.727H35.7273V261.091H44.0909V252.727Z" fill="white"/>
<path d="M94.2728 252.727H85.9092V261.091H94.2728V252.727Z" fill="white"/>
<path fill-rule="evenodd" clip-rule="evenodd" d="M30.1515 297.333H49.6666V316.849H30.1515V297.333ZM32.9394 300.121H46.8788V314.061H32.9394V300.121Z" fill="white"/>
<path d="M44.0909 302.909H35.7273V311.273H44.0909V302.909Z" fill="white"/>
</g>
<defs>
<linearGradient id="paint0_linear_145_580" x1="162.364" y1="7.26418" x2="47.7937" y2="287.602" gradientUnits="userSpaceOnUse">
<stop/>
<stop offset="1" stop-color="#133EB4"/>
</linearGradient>
<clipPath id="clip0_145_580">
<rect width="92" height="92" fill="white" transform="translate(19 236)"/>
</clipPath>
</defs>
</svg>
