<svg width="237" height="100" viewBox="0 0 237 100" fill="none" xmlns="http://www.w3.org/2000/svg">
<circle cx="50" cy="50" r="50" fill="white"/>
<circle cx="118" cy="50" r="50" fill="white"/>
<circle cx="187" cy="50" r="50" fill="white"/>
<path d="M40.9062 36.0781H45.5312V51.3906L54.1562 43.5625H61.2344L51.5938 52.1875L61.8438 62H54.9062L48.0469 55.3594L45.5312 57.6094V62H40.9062V36.0781Z" fill="#47663B"/>
<path d="M107.016 56.1875C107.016 55.3021 107.208 54.4948 107.594 53.7656C107.979 53.0365 108.557 52.4115 109.328 51.8906C110.099 51.3594 111.057 50.9531 112.203 50.6719C113.359 50.3802 114.703 50.2344 116.234 50.2344C117.37 50.2344 118.562 50.3177 119.812 50.4844C121.073 50.651 122.37 50.9062 123.703 51.25C123.651 50.6667 123.474 50.1302 123.172 49.6406C122.87 49.1406 122.448 48.7135 121.906 48.3594C121.375 47.9948 120.729 47.7135 119.969 47.5156C119.219 47.3177 118.365 47.2188 117.406 47.2188C116.885 47.2188 116.312 47.25 115.688 47.3125C115.062 47.375 114.417 47.4688 113.75 47.5938C113.083 47.7188 112.422 47.875 111.766 48.0625C111.12 48.25 110.516 48.474 109.953 48.7344L108.547 44.9375C109.245 44.6875 109.99 44.4583 110.781 44.25C111.583 44.0417 112.401 43.8646 113.234 43.7188C114.068 43.5625 114.901 43.4427 115.734 43.3594C116.568 43.276 117.375 43.2344 118.156 43.2344C121.604 43.2344 124.167 44.1146 125.844 45.875C127.521 47.6354 128.359 50.3333 128.359 53.9688V62H123.734V60.2656C123.255 60.5469 122.729 60.8125 122.156 61.0625C121.594 61.3125 120.979 61.5312 120.312 61.7188C119.646 61.9062 118.927 62.0521 118.156 62.1562C117.396 62.2708 116.589 62.3281 115.734 62.3281C114.297 62.3281 113.031 62.1719 111.938 61.8594C110.854 61.5469 109.948 61.1146 109.219 60.5625C108.49 60.0104 107.938 59.3646 107.562 58.625C107.198 57.875 107.016 57.0625 107.016 56.1875ZM111.891 56.0312C111.891 56.3333 111.969 56.625 112.125 56.9062C112.281 57.1771 112.531 57.4219 112.875 57.6406C113.219 57.849 113.656 58.0208 114.188 58.1562C114.729 58.2812 115.38 58.3438 116.141 58.3438C116.953 58.3438 117.74 58.2708 118.5 58.125C119.26 57.9792 119.969 57.7865 120.625 57.5469C121.281 57.3073 121.875 57.0312 122.406 56.7188C122.938 56.4062 123.38 56.0833 123.734 55.75V54.9375C123.026 54.7396 122.323 54.5729 121.625 54.4375C120.938 54.3021 120.276 54.1979 119.641 54.125C119.016 54.0417 118.422 53.9844 117.859 53.9531C117.307 53.9219 116.823 53.9062 116.406 53.9062C115.542 53.9062 114.823 53.9635 114.25 54.0781C113.677 54.1927 113.214 54.349 112.859 54.5469C112.505 54.7344 112.255 54.9583 112.109 55.2188C111.964 55.4792 111.891 55.75 111.891 56.0312Z" fill="#47663B"/>
<path d="M175.781 52.8594C175.781 51.3906 176.057 50.0677 176.609 48.8906C177.161 47.7031 177.922 46.6927 178.891 45.8594C179.87 45.0156 181.026 44.3698 182.359 43.9219C183.703 43.4635 185.156 43.2344 186.719 43.2344C188.062 43.2344 189.297 43.3906 190.422 43.7031C191.547 44.0052 192.521 44.401 193.344 44.8906V43.5625H197.969V69.5312H193.344V60.2656C192.938 60.5469 192.474 60.8125 191.953 61.0625C191.432 61.3125 190.875 61.5312 190.281 61.7188C189.688 61.9062 189.062 62.0521 188.406 62.1562C187.76 62.2708 187.104 62.3281 186.438 62.3281C184.875 62.3281 183.438 62.099 182.125 61.6406C180.823 61.1823 179.703 60.5365 178.766 59.7031C177.828 58.8698 177.094 57.875 176.562 56.7188C176.042 55.5521 175.781 54.2656 175.781 52.8594ZM180.641 52.8594C180.641 53.599 180.786 54.2969 181.078 54.9531C181.38 55.6094 181.807 56.1875 182.359 56.6875C182.922 57.1771 183.594 57.5677 184.375 57.8594C185.167 58.1406 186.052 58.2812 187.031 58.2812C187.656 58.2812 188.266 58.224 188.859 58.1094C189.453 57.9844 190.016 57.8125 190.547 57.5938C191.089 57.375 191.594 57.1094 192.062 56.7969C192.542 56.4844 192.969 56.1354 193.344 55.75V49.3594C192.396 48.6094 191.417 48.0781 190.406 47.7656C189.406 47.4427 188.38 47.2812 187.328 47.2812C186.266 47.2812 185.318 47.4271 184.484 47.7188C183.661 48 182.964 48.3906 182.391 48.8906C181.828 49.3906 181.396 49.9792 181.094 50.6562C180.792 51.3333 180.641 52.0677 180.641 52.8594Z" fill="#47663B"/>
</svg>
