<svg width="2632" height="500" viewBox="0 0 2632 491" fill="none" xmlns="http://www.w3.org/2000/svg">
  <g>
    <animateTransform attributeName="transform" type="translate" values="0 0; 0 -4; 0 3; 0 0" dur="7.20s" begin="-0.00s" repeatCount="indefinite"/>
    <animateTransform attributeName="transform" additive="sum" type="rotate" values="-1.0 144.500 245.5; 1.3 144.500 245.5; -0.7 144.500 245.5; -1.0 144.500 245.5" dur="7.20s" begin="-0.00s" repeatCount="indefinite"/>
    <path d="M140.833 53.3469C151.064 21.5551 180.644 0 214.041 0C266.464 0 303.522 51.2999 287.051 101.068L175.12 439.27C164.901 470.15 136.037 491 103.511 491C52.3564 491 16.038 441.16 31.7078 392.465L140.833 53.3469Z" fill="url(#paint0_linear_124_192)"/>
  </g>
  <g>
    <animateTransform attributeName="transform" type="translate" values="0 0; 0 -3; 0 4; 0 0" dur="8.40s" begin="-0.55s" repeatCount="indefinite"/>
    <animateTransform attributeName="transform" additive="sum" type="rotate" values="0.9 245.000 245.5; -1.1 245.000 245.5; 0.8 245.000 245.5; 0.9 245.000 245.5" dur="8.40s" begin="-0.55s" repeatCount="indefinite"/>
    <path d="M241.333 53.3469C251.564 21.5551 281.144 0 314.541 0C366.964 0 404.022 51.2999 387.551 101.068L275.62 439.27C265.401 470.15 236.537 491 204.011 491C152.856 491 116.538 441.16 132.208 392.465L241.333 53.3469Z" fill="url(#paint1_linear_124_192)"/>
  </g>
  <g>
    <animateTransform attributeName="transform" type="translate" values="0 0; 0 -5; 0 2; 0 0" dur="6.90s" begin="-1.10s" repeatCount="indefinite"/>
    <animateTransform attributeName="transform" additive="sum" type="rotate" values="-0.8 345.500 245.5; 1.0 345.500 245.5; -1.0 345.500 245.5; -0.8 345.500 245.5" dur="6.90s" begin="-1.10s" repeatCount="indefinite"/>
    <path d="M341.833 53.3469C352.064 21.5551 381.644 0 415.041 0C467.464 0 504.522 51.2999 488.051 101.068L376.12 439.27C365.901 470.15 337.037 491 304.511 491C253.356 491 217.038 441.16 232.708 392.465L341.833 53.3469Z" fill="url(#paint2_linear_124_192)"/>
  </g>
  <g>
    <animateTransform attributeName="transform" type="translate" values="0 0; 0 -2; 0 5; 0 0" dur="9.10s" begin="-1.65s" repeatCount="indefinite"/>
    <animateTransform attributeName="transform" additive="sum" type="rotate" values="1.1 446.000 245.5; -1.4 446.000 245.5; 0.9 446.000 245.5; 1.1 446.000 245.5" dur="9.10s" begin="-1.65s" repeatCount="indefinite"/>
    <path d="M442.333 53.3469C452.564 21.5551 482.144 0 515.541 0C567.964 0 605.022 51.2999 588.551 101.068L476.62 439.27C466.401 470.15 437.537 491 405.011 491C353.856 491 317.538 441.16 333.208 392.465L442.333 53.3469Z" fill="url(#paint3_linear_124_192)"/>
  </g>
  <g>
    <animateTransform attributeName="transform" type="translate" values="0 0; 0 -4; 0 3; 0 0" dur="7.70s" begin="-2.20s" repeatCount="indefinite"/>
    <animateTransform attributeName="transform" additive="sum" type="rotate" values="-0.9 546.500 245.5; 1.2 546.500 245.5; -0.6 546.500 245.5; -0.9 546.500 245.5" dur="7.70s" begin="-2.20s" repeatCount="indefinite"/>
    <path d="M542.833 53.3469C553.064 21.5551 582.644 0 616.041 0C668.464 0 705.522 51.2999 689.051 101.068L577.12 439.27C566.901 470.15 538.037 491 505.511 491C454.356 491 418.038 441.16 433.708 392.465L542.833 53.3469Z" fill="url(#paint4_linear_124_192)"/>
  </g>
  <g>
    <animateTransform attributeName="transform" type="translate" values="0 0; 0 -3; 0 4; 0 0" dur="8.80s" begin="-2.75s" repeatCount="indefinite"/>
    <animateTransform attributeName="transform" additive="sum" type="rotate" values="0.7 647.000 245.5; -0.8 647.000 245.5; 1.0 647.000 245.5; 0.7 647.000 245.5" dur="8.80s" begin="-2.75s" repeatCount="indefinite"/>
    <path d="M643.333 53.3469C653.564 21.5551 683.144 0 716.541 0C768.964 0 806.022 51.2999 789.551 101.068L677.62 439.27C667.401 470.15 638.537 491 606.011 491C554.856 491 518.538 441.16 534.208 392.465L643.333 53.3469Z" fill="url(#paint5_linear_124_192)"/>
  </g>
  <g>
    <animateTransform attributeName="transform" type="translate" values="0 0; 0 -5; 0 2; 0 0" dur="6.80s" begin="-3.30s" repeatCount="indefinite"/>
    <animateTransform attributeName="transform" additive="sum" type="rotate" values="-1.2 747.500 245.5; 1.1 747.500 245.5; -0.8 747.500 245.5; -1.2 747.500 245.5" dur="6.80s" begin="-3.30s" repeatCount="indefinite"/>
    <path d="M743.833 53.3469C754.064 21.5551 783.644 0 817.041 0C869.464 0 906.522 51.2999 890.051 101.068L778.12 439.27C767.901 470.15 739.037 491 706.511 491C655.356 491 619.038 441.16 634.708 392.465L743.833 53.3469Z" fill="url(#paint6_linear_124_192)"/>
  </g>
  <g>
    <animateTransform attributeName="transform" type="translate" values="0 0; 0 -2; 0 5; 0 0" dur="9.40s" begin="-3.85s" repeatCount="indefinite"/>
    <animateTransform attributeName="transform" additive="sum" type="rotate" values="0.8 848.000 245.5; -1.0 848.000 245.5; 0.7 848.000 245.5; 0.8 848.000 245.5" dur="9.40s" begin="-3.85s" repeatCount="indefinite"/>
    <path d="M844.333 53.3469C854.564 21.5551 884.144 0 917.541 0C969.964 0 1007.02 51.2999 990.551 101.068L878.62 439.27C868.401 470.15 839.537 491 807.011 491C755.856 491 719.538 441.16 735.208 392.465L844.333 53.3469Z" fill="url(#paint7_linear_124_192)"/>
  </g>
  <g>
    <animateTransform attributeName="transform" type="translate" values="0 0; 0 -4; 0 3; 0 0" dur="7.35s" begin="-4.40s" repeatCount="indefinite"/>
    <animateTransform attributeName="transform" additive="sum" type="rotate" values="-1.0 948.500 245.5; 1.3 948.500 245.5; -0.7 948.500 245.5; -1.0 948.500 245.5" dur="7.35s" begin="-4.40s" repeatCount="indefinite"/>
    <path d="M944.833 53.3469C955.064 21.5551 984.644 0 1018.04 0C1070.46 0 1107.52 51.2999 1091.05 101.068L979.12 439.27C968.901 470.15 940.037 491 907.511 491C856.356 491 820.038 441.16 835.708 392.465L944.833 53.3469Z" fill="url(#paint8_linear_124_192)"/>
  </g>
  <g>
    <animateTransform attributeName="transform" type="translate" values="0 0; 0 -3; 0 4; 0 0" dur="8.55s" begin="-4.95s" repeatCount="indefinite"/>
    <animateTransform attributeName="transform" additive="sum" type="rotate" values="0.9 1048.997 245.5; -1.1 1048.997 245.5; 0.8 1048.997 245.5; 0.9 1048.997 245.5" dur="8.55s" begin="-4.95s" repeatCount="indefinite"/>
    <path d="M1045.33 53.3469C1055.56 21.5551 1085.14 0 1118.54 0C1170.96 0 1208.02 51.2999 1191.55 101.068L1079.62 439.27C1069.4 470.15 1040.54 491 1008.01 491C956.856 491 920.538 441.16 936.208 392.465L1045.33 53.3469Z" fill="url(#paint9_linear_124_192)"/>
  </g>
  <g>
    <animateTransform attributeName="transform" type="translate" values="0 0; 0 -5; 0 2; 0 0" dur="7.05s" begin="-5.50s" repeatCount="indefinite"/>
    <animateTransform attributeName="transform" additive="sum" type="rotate" values="-0.8 1149.497 245.5; 1.0 1149.497 245.5; -1.0 1149.497 245.5; -0.8 1149.497 245.5" dur="7.05s" begin="-5.50s" repeatCount="indefinite"/>
    <path d="M1145.83 53.3469C1156.06 21.5551 1185.64 0 1219.04 0C1271.46 0 1308.52 51.2999 1292.05 101.068L1180.12 439.27C1169.9 470.15 1141.04 491 1108.51 491C1057.36 491 1021.04 441.16 1036.71 392.465L1145.83 53.3469Z" fill="url(#paint10_linear_124_192)"/>
  </g>
  <g>
    <animateTransform attributeName="transform" type="translate" values="0 0; 0 -2; 0 5; 0 0" dur="9.25s" begin="-6.05s" repeatCount="indefinite"/>
    <animateTransform attributeName="transform" additive="sum" type="rotate" values="1.1 1249.997 245.5; -1.4 1249.997 245.5; 0.9 1249.997 245.5; 1.1 1249.997 245.5" dur="9.25s" begin="-6.05s" repeatCount="indefinite"/>
    <path d="M1246.33 53.3469C1256.56 21.5551 1286.14 0 1319.54 0C1371.96 0 1409.02 51.2999 1392.55 101.068L1280.62 439.27C1270.4 470.15 1241.54 491 1209.01 491C1157.86 491 1121.54 441.16 1137.21 392.465L1246.33 53.3469Z" fill="url(#paint11_linear_124_192)"/>
  </g>
  <g>
    <animateTransform attributeName="transform" type="translate" values="0 0; 0 -4; 0 3; 0 0" dur="7.85s" begin="-6.60s" repeatCount="indefinite"/>
    <animateTransform attributeName="transform" additive="sum" type="rotate" values="-0.9 1350.497 245.5; 1.2 1350.497 245.5; -0.6 1350.497 245.5; -0.9 1350.497 245.5" dur="7.85s" begin="-6.60s" repeatCount="indefinite"/>
    <path d="M1346.83 53.3469C1357.06 21.5551 1386.64 0 1420.04 0C1472.46 0 1509.52 51.2999 1493.05 101.068L1381.12 439.27C1370.9 470.15 1342.04 491 1309.51 491C1258.36 491 1222.04 441.16 1237.71 392.465L1346.83 53.3469Z" fill="url(#paint12_linear_124_192)"/>
  </g>
  <g>
    <animateTransform attributeName="transform" type="translate" values="0 0; 0 -3; 0 4; 0 0" dur="8.95s" begin="-7.15s" repeatCount="indefinite"/>
    <animateTransform attributeName="transform" additive="sum" type="rotate" values="0.7 1450.997 245.5; -0.8 1450.997 245.5; 1.0 1450.997 245.5; 0.7 1450.997 245.5" dur="8.95s" begin="-7.15s" repeatCount="indefinite"/>
    <path d="M1447.33 53.3469C1457.56 21.5551 1487.14 0 1520.54 0C1572.96 0 1610.02 51.2999 1593.55 101.068L1481.62 439.27C1471.4 470.15 1442.54 491 1410.01 491C1358.86 491 1322.54 441.16 1338.21 392.465L1447.33 53.3469Z" fill="url(#paint13_linear_124_192)"/>
  </g>
  <g>
    <animateTransform attributeName="transform" type="translate" values="0 0; 0 -5; 0 2; 0 0" dur="6.95s" begin="-0.75s" repeatCount="indefinite"/>
    <animateTransform attributeName="transform" additive="sum" type="rotate" values="-1.2 1551.497 245.5; 1.1 1551.497 245.5; -0.8 1551.497 245.5; -1.2 1551.497 245.5" dur="6.95s" begin="-0.75s" repeatCount="indefinite"/>
    <path d="M1547.83 53.3469C1558.06 21.5551 1587.64 0 1621.04 0C1673.46 0 1710.52 51.2999 1694.05 101.068L1582.12 439.27C1571.9 470.15 1543.04 491 1510.51 491C1459.36 491 1423.04 441.16 1438.71 392.465L1547.83 53.3469Z" fill="url(#paint14_linear_124_192)"/>
  </g>
  <g>
    <animateTransform attributeName="transform" type="translate" values="0 0; 0 -2; 0 5; 0 0" dur="9.55s" begin="-8.25s" repeatCount="indefinite"/>
    <animateTransform attributeName="transform" additive="sum" type="rotate" values="0.8 1651.997 245.5; -1.0 1651.997 245.5; 0.7 1651.997 245.5; 0.8 1651.997 245.5" dur="9.55s" begin="-8.25s" repeatCount="indefinite"/>
    <path d="M1648.33 53.3469C1658.56 21.5551 1688.14 0 1721.54 0C1773.96 0 1811.02 51.2999 1794.55 101.068L1682.62 439.27C1672.4 470.15 1643.54 491 1611.01 491C1559.86 491 1523.54 441.16 1539.21 392.465L1648.33 53.3469Z" fill="url(#paint15_linear_124_192)"/>
  </g>
  <g>
    <animateTransform attributeName="transform" type="translate" values="0 0; 0 -4; 0 3; 0 0" dur="7.50s" begin="-1.30s" repeatCount="indefinite"/>
    <animateTransform attributeName="transform" additive="sum" type="rotate" values="-1.0 1752.497 245.5; 1.3 1752.497 245.5; -0.7 1752.497 245.5; -1.0 1752.497 245.5" dur="7.50s" begin="-1.30s" repeatCount="indefinite"/>
    <path d="M1748.83 53.3469C1759.06 21.5551 1788.64 0 1822.04 0C1874.46 0 1911.52 51.2999 1895.05 101.068L1783.12 439.27C1772.9 470.15 1744.04 491 1711.51 491C1660.36 491 1624.04 441.16 1639.71 392.465L1748.83 53.3469Z" fill="url(#paint16_linear_124_192)"/>
  </g>
  <g>
    <animateTransform attributeName="transform" type="translate" values="0 0; 0 -3; 0 4; 0 0" dur="8.70s" begin="-0.65s" repeatCount="indefinite"/>
    <animateTransform attributeName="transform" additive="sum" type="rotate" values="0.9 1852.997 245.5; -1.1 1852.997 245.5; 0.8 1852.997 245.5; 0.9 1852.997 245.5" dur="8.70s" begin="-0.65s" repeatCount="indefinite"/>
    <path d="M1849.33 53.3469C1859.56 21.5551 1889.14 0 1922.54 0C1974.96 0 2012.02 51.2999 1995.55 101.068L1883.62 439.27C1873.4 470.15 1844.54 491 1812.01 491C1760.86 491 1724.54 441.16 1740.21 392.465L1849.33 53.3469Z" fill="url(#paint17_linear_124_192)"/>
  </g>
  <g>
    <animateTransform attributeName="transform" type="translate" values="0 0; 0 -5; 0 2; 0 0" dur="7.20s" begin="-2.70s" repeatCount="indefinite"/>
    <animateTransform attributeName="transform" additive="sum" type="rotate" values="-0.8 1953.497 245.5; 1.0 1953.497 245.5; -1.0 1953.497 245.5; -0.8 1953.497 245.5" dur="7.20s" begin="-2.70s" repeatCount="indefinite"/>
    <path d="M1949.83 53.3469C1960.06 21.5551 1989.64 0 2023.04 0C2075.46 0 2112.52 51.2999 2096.05 101.068L1984.12 439.27C1973.9 470.15 1945.04 491 1912.51 491C1861.36 491 1825.04 441.16 1840.71 392.465L1949.83 53.3469Z" fill="url(#paint18_linear_124_192)"/>
  </g>
  <g>
    <animateTransform attributeName="transform" type="translate" values="0 0; 0 -2; 0 5; 0 0" dur="9.40s" begin="-1.05s" repeatCount="indefinite"/>
    <animateTransform attributeName="transform" additive="sum" type="rotate" values="1.1 2053.997 245.5; -1.4 2053.997 245.5; 0.9 2053.997 245.5; 1.1 2053.997 245.5" dur="9.40s" begin="-1.05s" repeatCount="indefinite"/>
    <path d="M2050.33 53.3469C2060.56 21.5551 2090.14 0 2123.54 0C2175.96 0 2213.02 51.2999 2196.55 101.068L2084.62 439.27C2074.4 470.15 2045.54 491 2013.01 491C1961.86 491 1925.54 441.16 1941.21 392.465L2050.33 53.3469Z" fill="url(#paint19_linear_124_192)"/>
  </g>
  <g>
    <animateTransform attributeName="transform" type="translate" values="0 0; 0 -4; 0 3; 0 0" dur="8.00s" begin="-3.00s" repeatCount="indefinite"/>
    <animateTransform attributeName="transform" additive="sum" type="rotate" values="-0.9 2154.497 245.5; 1.2 2154.497 245.5; -0.6 2154.497 245.5; -0.9 2154.497 245.5" dur="8.00s" begin="-3.00s" repeatCount="indefinite"/>
    <path d="M2150.83 53.3469C2161.06 21.5551 2190.64 0 2224.04 0C2276.46 0 2313.52 51.2999 2297.05 101.068L2185.12 439.27C2174.9 470.15 2146.04 491 2113.51 491C2062.36 491 2026.04 441.16 2041.71 392.465L2150.83 53.3469Z" fill="url(#paint20_linear_124_192)"/>
  </g>
  <g>
    <animateTransform attributeName="transform" type="translate" values="0 0; 0 -3; 0 4; 0 0" dur="9.10s" begin="-2.45s" repeatCount="indefinite"/>
    <animateTransform attributeName="transform" additive="sum" type="rotate" values="0.7 2254.997 245.5; -0.8 2254.997 245.5; 1.0 2254.997 245.5; 0.7 2254.997 245.5" dur="9.10s" begin="-2.45s" repeatCount="indefinite"/>
    <path d="M2251.33 53.3469C2261.56 21.5551 2291.14 0 2324.54 0C2376.96 0 2414.02 51.2999 2397.55 101.068L2285.62 439.27C2275.4 470.15 2246.54 491 2214.01 491C2162.86 491 2126.54 441.16 2142.21 392.465L2251.33 53.3469Z" fill="url(#paint21_linear_124_192)"/>
  </g>
  <g>
    <animateTransform attributeName="transform" type="translate" values="0 0; 0 -5; 0 2; 0 0" dur="7.10s" begin="-5.00s" repeatCount="indefinite"/>
    <animateTransform attributeName="transform" additive="sum" type="rotate" values="-1.2 2355.497 245.5; 1.1 2355.497 245.5; -0.8 2355.497 245.5; -1.2 2355.497 245.5" dur="7.10s" begin="-5.00s" repeatCount="indefinite"/>
    <path d="M2351.83 53.3469C2362.06 21.5551 2391.64 0 2425.04 0C2477.46 0 2514.52 51.2999 2498.05 101.068L2386.12 439.27C2375.9 470.15 2347.04 491 2314.51 491C2263.36 491 2227.04 441.16 2242.71 392.465L2351.83 53.3469Z" fill="url(#paint22_linear_124_192)"/>
  </g>
  <g>
    <animateTransform attributeName="transform" type="translate" values="0 0; 0 -2; 0 5; 0 0" dur="9.70s" begin="-2.95s" repeatCount="indefinite"/>
    <animateTransform attributeName="transform" additive="sum" type="rotate" values="0.8 2455.997 245.5; -1.0 2455.997 245.5; 0.7 2455.997 245.5; 0.8 2455.997 245.5" dur="9.70s" begin="-2.95s" repeatCount="indefinite"/>
    <path d="M2452.33 53.3469C2462.56 21.5551 2492.14 0 2525.54 0C2577.96 0 2615.02 51.2999 2598.55 101.068L2486.62 439.27C2476.4 470.15 2447.54 491 2415.01 491C2363.86 491 2327.54 441.16 2343.21 392.465L2452.33 53.3469Z" fill="url(#paint23_linear_124_192)"/>
  </g>
<defs>
<linearGradient id="paint0_linear_124_192" x1="289" y1="51.5" x2="1.23482e-05" y2="300.5" gradientUnits="userSpaceOnUse">
<stop offset="0.289375" stop-color="#133EB4"/>
<stop offset="1"/>
</linearGradient>
<linearGradient id="paint1_linear_124_192" x1="389.5" y1="51.5" x2="100.5" y2="300.5" gradientUnits="userSpaceOnUse">
<stop offset="0.289375" stop-color="#133EB4"/>
<stop offset="1"/>
</linearGradient>
<linearGradient id="paint2_linear_124_192" x1="490" y1="51.5" x2="201" y2="300.5" gradientUnits="userSpaceOnUse">
<stop offset="0.289375" stop-color="#133EB4"/>
<stop offset="1"/>
</linearGradient>
<linearGradient id="paint3_linear_124_192" x1="590.5" y1="51.5" x2="301.5" y2="300.5" gradientUnits="userSpaceOnUse">
<stop offset="0.289375" stop-color="#133EB4"/>
<stop offset="1"/>
</linearGradient>
<linearGradient id="paint4_linear_124_192" x1="691" y1="51.5" x2="402" y2="300.5" gradientUnits="userSpaceOnUse">
<stop offset="0.289375" stop-color="#133EB4"/>
<stop offset="1"/>
</linearGradient>
<linearGradient id="paint5_linear_124_192" x1="791.5" y1="51.5" x2="502.5" y2="300.5" gradientUnits="userSpaceOnUse">
<stop offset="0.289375" stop-color="#133EB4"/>
<stop offset="1"/>
</linearGradient>
<linearGradient id="paint6_linear_124_192" x1="892" y1="51.5" x2="603" y2="300.5" gradientUnits="userSpaceOnUse">
<stop offset="0.289375" stop-color="#133EB4"/>
<stop offset="1"/>
</linearGradient>
<linearGradient id="paint7_linear_124_192" x1="992.5" y1="51.5" x2="703.5" y2="300.5" gradientUnits="userSpaceOnUse">
<stop offset="0.289375" stop-color="#133EB4"/>
<stop offset="1"/>
</linearGradient>
<linearGradient id="paint8_linear_124_192" x1="1093" y1="51.5" x2="804" y2="300.5" gradientUnits="userSpaceOnUse">
<stop offset="0.289375" stop-color="#133EB4"/>
<stop offset="1"/>
</linearGradient>
<linearGradient id="paint9_linear_124_192" x1="1193.5" y1="51.5" x2="904.5" y2="300.5" gradientUnits="userSpaceOnUse">
<stop offset="0.289375" stop-color="#133EB4"/>
<stop offset="1"/>
</linearGradient>
<linearGradient id="paint10_linear_124_192" x1="1294" y1="51.5" x2="1005" y2="300.5" gradientUnits="userSpaceOnUse">
<stop offset="0.289375" stop-color="#133EB4"/>
<stop offset="1"/>
</linearGradient>
<linearGradient id="paint11_linear_124_192" x1="1394.5" y1="51.5" x2="1105.5" y2="300.5" gradientUnits="userSpaceOnUse">
<stop offset="0.289375" stop-color="#133EB4"/>
<stop offset="1"/>
</linearGradient>
<linearGradient id="paint12_linear_124_192" x1="1495" y1="51.5" x2="1206" y2="300.5" gradientUnits="userSpaceOnUse">
<stop offset="0.289375" stop-color="#133EB4"/>
<stop offset="1"/>
</linearGradient>
<linearGradient id="paint13_linear_124_192" x1="1595.5" y1="51.5" x2="1306.5" y2="300.5" gradientUnits="userSpaceOnUse">
<stop offset="0.289375" stop-color="#133EB4"/>
<stop offset="1"/>
</linearGradient>
<linearGradient id="paint14_linear_124_192" x1="1696" y1="51.5" x2="1407" y2="300.5" gradientUnits="userSpaceOnUse">
<stop offset="0.289375" stop-color="#133EB4"/>
<stop offset="1"/>
</linearGradient>
<linearGradient id="paint15_linear_124_192" x1="1796.5" y1="51.5" x2="1507.5" y2="300.5" gradientUnits="userSpaceOnUse">
<stop offset="0.289375" stop-color="#133EB4"/>
<stop offset="1"/>
</linearGradient>
<linearGradient id="paint16_linear_124_192" x1="1897" y1="51.5" x2="1692" y2="349.5" gradientUnits="userSpaceOnUse">
<stop stop-color="#133EB4"/>
<stop offset="1"/>
</linearGradient>
<linearGradient id="paint17_linear_124_192" x1="1997.5" y1="51.5" x2="1708.5" y2="300.5" gradientUnits="userSpaceOnUse">
<stop offset="0.289375" stop-color="#133EB4"/>
<stop offset="1"/>
</linearGradient>
<linearGradient id="paint18_linear_124_192" x1="2098" y1="51.5" x2="1809" y2="300.5" gradientUnits="userSpaceOnUse">
<stop offset="0.289375" stop-color="#133EB4"/>
<stop offset="1"/>
</linearGradient>
<linearGradient id="paint19_linear_124_192" x1="2198.5" y1="51.5" x2="1909.5" y2="300.5" gradientUnits="userSpaceOnUse">
<stop offset="0.289375" stop-color="#133EB4"/>
<stop offset="1"/>
</linearGradient>
<linearGradient id="paint20_linear_124_192" x1="2299" y1="51.5" x2="2010" y2="300.5" gradientUnits="userSpaceOnUse">
<stop offset="0.289375" stop-color="#133EB4"/>
<stop offset="1"/>
</linearGradient>
<linearGradient id="paint21_linear_124_192" x1="2399.5" y1="51.5" x2="2110.5" y2="300.5" gradientUnits="userSpaceOnUse">
<stop offset="0.289375" stop-color="#133EB4"/>
<stop offset="1"/>
</linearGradient>
<linearGradient id="paint22_linear_124_192" x1="2500" y1="51.5" x2="2211" y2="300.5" gradientUnits="userSpaceOnUse">
<stop offset="0.289375" stop-color="#133EB4"/>
<stop offset="1"/>
</linearGradient>
<linearGradient id="paint23_linear_124_192" x1="2600.5" y1="51.5" x2="2311.5" y2="300.5" gradientUnits="userSpaceOnUse">
<stop offset="0.289375" stop-color="#133EB4"/>
<stop offset="1"/>
</linearGradient>
</defs>
</svg>